<svg xmlns="http://www.w3.org/2000/svg" viewBox="0 0 1764 864"><defs><style>.cls-1{fill:none;stroke:#2f7eb2;stroke-miterlimit:10;stroke-width:4px;}.cls-2{fill:#636569;}.cls-3{fill:#b0d0e4;}.cls-4{fill:#fff;}.cls-5{fill:#2f7eb2;}.cls-6{fill:#e6e6e6;}.cls-7{fill:#004b87;}</style></defs><g id="bits"><g id="src_bits" data-name="src bits"><circle class="cls-1" cx="378" cy="171" r="81"/><path class="cls-2" d="M341,154.64a2.29,2.29,0,0,0-2.09-1.51,1.65,1.65,0,0,0-1.8,1.69c0,1.08.72,1.4,2.41,2.12,2.16.9,3.17,1.59,3.75,2.31a3.51,3.51,0,0,1,.79,2.41c0,3.13-2.27,4.89-5.15,4.89a5.34,5.34,0,0,1-5.22-3.81l2.23-.94a3.4,3.4,0,0,0,3,2.45,2.32,2.32,0,0,0,2.45-2.38c0-1.4-1-1.87-2.42-2.48a9.62,9.62,0,0,1-3.63-2.2,3.22,3.22,0,0,1-.69-2.19,4,4,0,0,1,4.36-4.18,4.31,4.31,0,0,1,4.1,2.7Z"/><path class="cls-2" d="M346.59,158.71a7.92,7.92,0,1,1,7.92,7.84A7.67,7.67,0,0,1,346.59,158.71Zm2.66,0a5.27,5.27,0,1,0,5.26-5.58A5.18,5.18,0,0,0,349.25,158.71Z"/><path class="cls-2" d="M369,159.89a5.1,5.1,0,0,0,.72,3.21,3.58,3.58,0,0,0,5.26,0,5.1,5.1,0,0,0,.72-3.21v-8.71h2.59v9c0,1.84-.18,3.21-1.37,4.5a6.52,6.52,0,0,1-9.14,0c-1.19-1.29-1.37-2.66-1.37-4.5v-9H369Z"/><path class="cls-2" d="M383.17,151.18h2.59v1.62a4.15,4.15,0,0,1,3.38-2,5.35,5.35,0,0,1,2.3.62l-1.22,2.33a2.72,2.72,0,0,0-1.51-.5,2.51,2.51,0,0,0-2.09.94c-.43.57-.86,1.58-.86,4v7.88h-2.59Z"/><path class="cls-2" d="M404.66,155.36a6,6,0,0,0-4.68-2.23,5.57,5.57,0,0,0,0,11.12,6.33,6.33,0,0,0,4.82-2.34V165a8,8,0,0,1-4.75,1.54,7.87,7.87,0,1,1,0-15.73,8,8,0,0,1,4.65,1.44Z"/><path class="cls-2" d="M422,162.31a9.21,9.21,0,0,1-1.83,2.41,7.27,7.27,0,0,1-5,1.83c-3.6,0-7.38-2.26-7.38-7.81,0-4.46,2.73-7.92,7.23-7.92a6.69,6.69,0,0,1,5.66,2.74,10.07,10.07,0,0,1,1.4,5.61H410.45a4.79,4.79,0,0,0,4.75,5.08,4.52,4.52,0,0,0,3.06-1.08,5.87,5.87,0,0,0,1.55-2Zm-2.55-5.3a4.47,4.47,0,0,0-4.4-3.88,4.54,4.54,0,0,0-4.39,3.88Z"/><path class="cls-2" d="M359.64,202.12h-2.59V175.88h2.59v13.39a6.44,6.44,0,0,1,5.11-2.45c4.68,0,7.27,3.89,7.27,7.92s-2.63,7.81-7.16,7.81a6.35,6.35,0,0,1-5.22-2.52Zm9.72-7.38c0-3.67-2.48-5.61-4.9-5.61s-5,2-5,5.58c0,3.06,1.94,5.54,5,5.54S369.36,197.73,369.36,194.74Z"/><path class="cls-2" d="M377.28,179.7a1.84,1.84,0,1,1-1.84,1.83A1.84,1.84,0,0,1,377.28,179.7Zm1.3,7.48v14.94H376V187.18Z"/><path class="cls-2" d="M386.14,189.56v12.56h-2.6V189.56H382v-2.38h1.58v-5.4h2.6v5.4h2.59v2.38Z"/><path class="cls-2" d="M397.33,190.64a2.29,2.29,0,0,0-2.09-1.51,1.65,1.65,0,0,0-1.8,1.69c0,1.08.72,1.4,2.41,2.12,2.16.9,3.17,1.59,3.75,2.31a3.51,3.51,0,0,1,.79,2.41c0,3.13-2.27,4.89-5.15,4.89a5.34,5.34,0,0,1-5.22-3.81l2.23-.94a3.4,3.4,0,0,0,3,2.45,2.32,2.32,0,0,0,2.45-2.38c0-1.4-1-1.87-2.42-2.48a9.71,9.71,0,0,1-3.63-2.2A3.21,3.21,0,0,1,391,191a4,4,0,0,1,4.35-4.18,4.31,4.31,0,0,1,4.1,2.7Z"/></g><g id="rec_bits" data-name="rec bits"><circle class="cls-1" cx="378" cy="693" r="81"/><path class="cls-2" d="M320.85,673.18h2.59v1.62a4.17,4.17,0,0,1,3.39-2,5.39,5.39,0,0,1,2.3.62l-1.22,2.33a2.73,2.73,0,0,0-1.52-.5,2.48,2.48,0,0,0-2.08.94c-.44.57-.87,1.58-.87,4v7.88h-2.59Z"/><path class="cls-2" d="M343.89,684.31a9,9,0,0,1-1.84,2.41,7.25,7.25,0,0,1-5,1.83c-3.6,0-7.38-2.26-7.38-7.81,0-4.46,2.73-7.92,7.23-7.92a6.67,6.67,0,0,1,5.65,2.74,10,10,0,0,1,1.41,5.61H332.37a4.79,4.79,0,0,0,4.75,5.08,4.52,4.52,0,0,0,3.06-1.08,5.87,5.87,0,0,0,1.55-2Zm-2.56-5.3a4.46,4.46,0,0,0-4.39-3.88,4.54,4.54,0,0,0-4.39,3.88Z"/><path class="cls-2" d="M359.66,677.36a6,6,0,0,0-4.68-2.23,5.57,5.57,0,0,0,0,11.12,6.37,6.37,0,0,0,4.83-2.34V687a8,8,0,0,1-4.76,1.54,7.87,7.87,0,1,1,0-15.73,8,8,0,0,1,4.65,1.44Z"/><path class="cls-2" d="M377,684.31a9.21,9.21,0,0,1-1.83,2.41,7.27,7.27,0,0,1-5,1.83c-3.6,0-7.38-2.26-7.38-7.81,0-4.46,2.74-7.92,7.24-7.92a6.68,6.68,0,0,1,5.65,2.74,10.07,10.07,0,0,1,1.4,5.61H365.45a4.79,4.79,0,0,0,4.76,5.08,4.52,4.52,0,0,0,3.05-1.08,5.87,5.87,0,0,0,1.55-2Zm-2.55-5.3a4.47,4.47,0,0,0-4.39-3.88,4.54,4.54,0,0,0-4.4,3.88Z"/><path class="cls-2" d="M382.34,665.7a1.84,1.84,0,1,1-1.84,1.83A1.83,1.83,0,0,1,382.34,665.7Zm1.29,7.48v14.94H381V673.18Z"/><path class="cls-2" d="M389.25,673.18l4.46,10.08,4.47-10.08h2.88l-7.35,15.91-7.34-15.91Z"/><path class="cls-2" d="M417,684.31a9,9,0,0,1-1.84,2.41,7.25,7.25,0,0,1-5,1.83c-3.6,0-7.38-2.26-7.38-7.81,0-4.46,2.73-7.92,7.23-7.92a6.67,6.67,0,0,1,5.65,2.74,10,10,0,0,1,1.41,5.61H405.52a4.79,4.79,0,0,0,4.75,5.08,4.52,4.52,0,0,0,3.06-1.08,5.87,5.87,0,0,0,1.55-2Zm-2.56-5.3a4.46,4.46,0,0,0-4.39-3.88A4.54,4.54,0,0,0,405.7,679Z"/><path class="cls-2" d="M432.56,661.88h2.59v26.24h-2.59V686a6.31,6.31,0,0,1-5.12,2.52c-3.78,0-7.27-2.66-7.27-7.92s3.46-7.81,7.27-7.81a6.21,6.21,0,0,1,5.12,2.49Zm-9.72,18.75c0,3.21,1.8,5.62,4.89,5.62s5-2.63,5-5.58c0-3.85-2.66-5.54-5-5.54C425.18,675.13,422.84,677,422.84,680.63Z"/><path class="cls-2" d="M359.64,724.12h-2.59V697.88h2.59v13.39a6.44,6.44,0,0,1,5.11-2.45c4.68,0,7.27,3.89,7.27,7.92s-2.63,7.81-7.16,7.81a6.35,6.35,0,0,1-5.22-2.52Zm9.72-7.38c0-3.67-2.48-5.61-4.9-5.61s-5,2-5,5.58c0,3.06,1.94,5.54,5,5.54S369.36,719.73,369.36,716.74Z"/><path class="cls-2" d="M377.28,701.7a1.84,1.84,0,1,1-1.84,1.83A1.84,1.84,0,0,1,377.28,701.7Zm1.3,7.48v14.94H376V709.18Z"/><path class="cls-2" d="M386.14,711.56v12.56h-2.6V711.56H382v-2.38h1.58v-5.4h2.6v5.4h2.59v2.38Z"/><path class="cls-2" d="M397.33,712.64a2.29,2.29,0,0,0-2.09-1.51,1.65,1.65,0,0,0-1.8,1.69c0,1.08.72,1.4,2.41,2.12,2.16.9,3.17,1.59,3.75,2.31a3.51,3.51,0,0,1,.79,2.41c0,3.13-2.27,4.89-5.15,4.89a5.34,5.34,0,0,1-5.22-3.81l2.23-.94a3.4,3.4,0,0,0,3,2.45,2.32,2.32,0,0,0,2.45-2.38c0-1.4-1-1.87-2.42-2.48a9.71,9.71,0,0,1-3.63-2.2A3.21,3.21,0,0,1,391,713a4,4,0,0,1,4.35-4.18,4.31,4.31,0,0,1,4.1,2.7Z"/></g><g id="bit_text" data-name="bit text"><path class="cls-2" d="M290.18,309.48h-2.64v-16.8a13.5,13.5,0,0,1-2.5,1.81,18,18,0,0,1-2.77,1.37v-2.55a16.29,16.29,0,0,0,3.86-2.52,10,10,0,0,0,2.35-2.87h1.7Z"/><path class="cls-2" d="M305.26,298.89a19.7,19.7,0,0,1,.79-6.13,7.6,7.6,0,0,1,2.33-3.58,5.94,5.94,0,0,1,3.89-1.26,6.39,6.39,0,0,1,3,.69,5.82,5.82,0,0,1,2.15,2,10.87,10.87,0,0,1,1.34,3.19,21.42,21.42,0,0,1,.48,5.08,19.62,19.62,0,0,1-.78,6.1,7.66,7.66,0,0,1-2.32,3.59,6,6,0,0,1-3.9,1.27,5.91,5.91,0,0,1-4.88-2.23Q305.26,304.93,305.26,298.89Zm2.71,0c0,3.52.42,5.87,1.24,7a3.68,3.68,0,0,0,3.06,1.75,3.64,3.64,0,0,0,3.05-1.76c.83-1.17,1.24-3.52,1.24-7s-.41-5.89-1.24-7.05a3.66,3.66,0,0,0-3.08-1.74,3.37,3.37,0,0,0-2.9,1.54C308.43,293,308,295.36,308,298.89Z"/><path class="cls-2" d="M330.28,298.89a19.7,19.7,0,0,1,.79-6.13,7.6,7.6,0,0,1,2.33-3.58,5.94,5.94,0,0,1,3.89-1.26,6.39,6.39,0,0,1,3,.69,5.82,5.82,0,0,1,2.15,2,10.6,10.6,0,0,1,1.33,3.19,20.84,20.84,0,0,1,.49,5.08,19.62,19.62,0,0,1-.78,6.1,7.66,7.66,0,0,1-2.32,3.59,6,6,0,0,1-3.9,1.27,5.91,5.91,0,0,1-4.88-2.23Q330.28,304.93,330.28,298.89Zm2.71,0c0,3.52.42,5.87,1.24,7a3.68,3.68,0,0,0,3.06,1.75,3.64,3.64,0,0,0,3-1.76c.83-1.17,1.24-3.52,1.24-7s-.41-5.89-1.24-7.05a3.66,3.66,0,0,0-3.08-1.74,3.37,3.37,0,0,0-2.9,1.54C333.45,293,333,295.36,333,298.89Z"/><path class="cls-2" d="M365.24,309.48H362.6v-16.8a13.85,13.85,0,0,1-2.5,1.81,18,18,0,0,1-2.77,1.37v-2.55a16.29,16.29,0,0,0,3.86-2.52,10,10,0,0,0,2.35-2.87h1.7Z"/><path class="cls-2" d="M390.25,309.48h-2.63v-16.8a13.85,13.85,0,0,1-2.5,1.81,17.65,17.65,0,0,1-2.78,1.37v-2.55a16.16,16.16,0,0,0,3.87-2.52,10,10,0,0,0,2.35-2.87h1.69Z"/><path class="cls-2" d="M405.34,298.89a19.41,19.41,0,0,1,.79-6.13,7.6,7.6,0,0,1,2.33-3.58,5.93,5.93,0,0,1,3.88-1.26,6.4,6.4,0,0,1,3,.69,5.9,5.9,0,0,1,2.15,2,10.6,10.6,0,0,1,1.33,3.19,20.84,20.84,0,0,1,.49,5.08,19.62,19.62,0,0,1-.78,6.1,7.66,7.66,0,0,1-2.32,3.59,6,6,0,0,1-3.91,1.27,5.89,5.89,0,0,1-4.87-2.23Q405.34,304.93,405.34,298.89Zm2.71,0c0,3.52.42,5.87,1.24,7a3.54,3.54,0,0,0,6.11,0c.82-1.17,1.24-3.52,1.24-7s-.42-5.89-1.24-7.05a3.68,3.68,0,0,0-3.08-1.74,3.36,3.36,0,0,0-2.9,1.54C408.51,293,408.05,295.36,408.05,298.89Z"/><path class="cls-2" d="M440.29,309.48h-2.63v-16.8a13.85,13.85,0,0,1-2.5,1.81,18.09,18.09,0,0,1-2.78,1.37v-2.55a16.16,16.16,0,0,0,3.87-2.52,10,10,0,0,0,2.34-2.87h1.7Z"/><path class="cls-2" d="M465.31,309.48h-2.63v-16.8a13.85,13.85,0,0,1-2.5,1.81,18.09,18.09,0,0,1-2.78,1.37v-2.55a16.16,16.16,0,0,0,3.87-2.52,10,10,0,0,0,2.34-2.87h1.7Z"/><path class="cls-2" d="M481.88,309.48v-3h3v3Z"/><path class="cls-2" d="M490.22,309.48v-3h3v3Z"/><path class="cls-2" d="M498.55,309.48v-3h3v3Z"/><path class="cls-2" d="M290.18,579.48h-2.64v-16.8a13.5,13.5,0,0,1-2.5,1.81,18,18,0,0,1-2.77,1.37v-2.55a16.29,16.29,0,0,0,3.86-2.52,10,10,0,0,0,2.35-2.87h1.7Z"/><path class="cls-2" d="M305.26,568.89a19.7,19.7,0,0,1,.79-6.13,7.6,7.6,0,0,1,2.33-3.58,5.94,5.94,0,0,1,3.89-1.26,6.39,6.39,0,0,1,3,.69,5.82,5.82,0,0,1,2.15,2,10.87,10.87,0,0,1,1.34,3.19,21.42,21.42,0,0,1,.48,5.08,19.62,19.62,0,0,1-.78,6.1,7.66,7.66,0,0,1-2.32,3.59,6,6,0,0,1-3.9,1.27,5.91,5.91,0,0,1-4.88-2.23Q305.26,574.94,305.26,568.89Zm2.71,0c0,3.52.42,5.87,1.24,7a3.68,3.68,0,0,0,3.06,1.75,3.64,3.64,0,0,0,3.05-1.76c.83-1.17,1.24-3.52,1.24-7s-.41-5.89-1.24-7a3.66,3.66,0,0,0-3.08-1.74,3.37,3.37,0,0,0-2.9,1.54C308.43,563,308,565.36,308,568.89Z"/><path class="cls-2" d="M330.28,568.89a19.7,19.7,0,0,1,.79-6.13,7.6,7.6,0,0,1,2.33-3.58,5.94,5.94,0,0,1,3.89-1.26,6.39,6.39,0,0,1,3,.69,5.82,5.82,0,0,1,2.15,2,10.6,10.6,0,0,1,1.33,3.19,20.84,20.84,0,0,1,.49,5.08,19.62,19.62,0,0,1-.78,6.1,7.66,7.66,0,0,1-2.32,3.59,6,6,0,0,1-3.9,1.27,5.91,5.91,0,0,1-4.88-2.23Q330.28,574.94,330.28,568.89Zm2.71,0c0,3.52.42,5.87,1.24,7a3.68,3.68,0,0,0,3.06,1.75,3.64,3.64,0,0,0,3-1.76c.83-1.17,1.24-3.52,1.24-7s-.41-5.89-1.24-7a3.66,3.66,0,0,0-3.08-1.74,3.37,3.37,0,0,0-2.9,1.54C333.45,563,333,565.36,333,568.89Z"/><path class="cls-2" d="M365.24,579.48H362.6v-16.8a13.85,13.85,0,0,1-2.5,1.81,18,18,0,0,1-2.77,1.37v-2.55a16.29,16.29,0,0,0,3.86-2.52,10,10,0,0,0,2.35-2.87h1.7Z"/><path class="cls-2" d="M380.32,568.89a19.41,19.41,0,0,1,.79-6.13,7.6,7.6,0,0,1,2.33-3.58,5.94,5.94,0,0,1,3.89-1.26,6.39,6.39,0,0,1,3,.69,5.9,5.9,0,0,1,2.15,2,10.6,10.6,0,0,1,1.33,3.19,20.84,20.84,0,0,1,.49,5.08,19.62,19.62,0,0,1-.78,6.1,7.66,7.66,0,0,1-2.32,3.59,6,6,0,0,1-3.9,1.27,5.9,5.9,0,0,1-4.88-2.23Q380.32,574.94,380.32,568.89Zm2.71,0c0,3.52.42,5.87,1.24,7a3.54,3.54,0,0,0,6.11,0c.82-1.17,1.24-3.52,1.24-7s-.42-5.89-1.24-7a3.68,3.68,0,0,0-3.08-1.74,3.36,3.36,0,0,0-2.9,1.54C383.49,563,383,565.36,383,568.89Z"/><path class="cls-2" d="M405.34,568.89a19.41,19.41,0,0,1,.79-6.13,7.6,7.6,0,0,1,2.33-3.58,5.93,5.93,0,0,1,3.88-1.26,6.4,6.4,0,0,1,3,.69,5.9,5.9,0,0,1,2.15,2,10.6,10.6,0,0,1,1.33,3.19,20.84,20.84,0,0,1,.49,5.08,19.62,19.62,0,0,1-.78,6.1,7.66,7.66,0,0,1-2.32,3.59,6,6,0,0,1-3.91,1.27,5.89,5.89,0,0,1-4.87-2.23Q405.34,574.94,405.34,568.89Zm2.71,0c0,3.52.42,5.87,1.24,7a3.54,3.54,0,0,0,6.11,0c.82-1.17,1.24-3.52,1.24-7s-.42-5.89-1.24-7a3.68,3.68,0,0,0-3.08-1.74,3.36,3.36,0,0,0-2.9,1.54C408.51,563,408.05,565.36,408.05,568.89Z"/><path class="cls-2" d="M440.29,579.48h-2.63v-16.8a13.85,13.85,0,0,1-2.5,1.81,18.09,18.09,0,0,1-2.78,1.37v-2.55a16.16,16.16,0,0,0,3.87-2.52,10,10,0,0,0,2.34-2.87h1.7Z"/><path class="cls-2" d="M465.31,579.48h-2.63v-16.8a13.85,13.85,0,0,1-2.5,1.81,18.09,18.09,0,0,1-2.78,1.37v-2.55a16.16,16.16,0,0,0,3.87-2.52,10,10,0,0,0,2.34-2.87h1.7Z"/><path class="cls-2" d="M481.88,579.48v-3h3v3Z"/><path class="cls-2" d="M490.22,579.48v-3h3v3Z"/><path class="cls-2" d="M498.55,579.48v-3h3v3Z"/></g></g><g id="TxRx_2_blocks" data-name="TxRx 2 blocks"><g id="Receiver"><path class="cls-3" d="M648,683.92V617.15c0-22.72,20.8-41.15,46.45-41.15h465.1c25.65,0,46.45,18.43,46.45,41.15v151.7c0,22.72-20.8,41.15-46.45,41.15H694.45C668.8,810,648,791.57,648,768.85V683.92"/><path class="cls-2" d="M875.27,536a6.69,6.69,0,0,1,4.76,1.62,5.66,5.66,0,0,1,1.62,4.18,5.1,5.1,0,0,1-1.45,3.8,5.85,5.85,0,0,1-2.61,1.43l5.74,7.65h-5.26l-5-7.37v7.37h-4.31V536ZM873,544.51h1a3.55,3.55,0,0,0,2.58-.81,2.54,2.54,0,0,0,.7-1.82,2.27,2.27,0,0,0-.87-1.9,4.23,4.23,0,0,0-2.38-.59h-1Z"/><path class="cls-2" d="M896.27,539.67H890v3.61H896v3.64H890v4.15h6.24v3.64H885.71V536h10.56Z"/><path class="cls-2" d="M913.27,554.12a8.69,8.69,0,0,1-4.12,1,10,10,0,0,1-7.34-2.72,10,10,0,0,1,0-14.11,9.94,9.94,0,0,1,7-2.69,11,11,0,0,1,4.48,1v5a5.93,5.93,0,0,0-4.37-2,5.25,5.25,0,0,0-3.81,1.46,6,6,0,0,0-1.76,4.31,5.44,5.44,0,0,0,5.65,5.68,5.87,5.87,0,0,0,4.29-1.93Z"/><path class="cls-2" d="M927.27,539.67H921v3.61H927v3.64H921v4.15h6.25v3.64H916.71V536h10.56Z"/><path class="cls-2" d="M935.16,536v18.68h-4.31V536Z"/><path class="cls-2" d="M942.05,536l4.73,12,4.73-12h4.65l-7.92,18.68h-2.91L937.4,536Z"/><path class="cls-2" d="M968.88,539.67h-6.25v3.61h5.94v3.64h-5.94v4.15h6.25v3.64H958.32V536h10.56Z"/><path class="cls-2" d="M978.93,536a6.69,6.69,0,0,1,4.76,1.62,5.66,5.66,0,0,1,1.62,4.18,5.07,5.07,0,0,1-1.46,3.8,5.76,5.76,0,0,1-2.6,1.43l5.74,7.65h-5.26l-5-7.37v7.37h-4.31V536Zm-2.24,8.48h1a3.53,3.53,0,0,0,2.57-.81,2.5,2.5,0,0,0,.7-1.82,2.27,2.27,0,0,0-.86-1.9,4.26,4.26,0,0,0-2.39-.59h-1Z"/><g id="QAM_Demod_white_2" data-name="QAM Demod white 2"><rect class="cls-4" x="702" y="621" width="198" height="144" rx="20.9"/><path class="cls-2" d="M782.05,684a12.12,12.12,0,0,1-7,2.14,12.08,12.08,0,1,1,12.15-12.08,11.76,11.76,0,0,1-3.29,8.37L787.3,686h-3.36Zm0-3.46a9.3,9.3,0,0,0,2.49-6.48,9.49,9.49,0,1,0-4.31,8.09l-5.63-5.81h3.36Z"/><path class="cls-2" d="M804.8,679.18h-9.94l-2.8,6.58h-2.87l10.74-24.47,10.47,24.47h-2.87Zm-1-2.45-3.92-9.35-4,9.35Z"/><path class="cls-2" d="M812.88,685.76l3.89-24.64,9,19.7,9.13-19.74,3.65,24.68h-2.67l-2.2-16.24-7.95,17.22-7.84-17.22-2.31,16.24Z"/><path class="cls-2" d="M715.08,702.41h4.76a12.73,12.73,0,0,1,8.61,2.73,11.4,11.4,0,0,1,4,9,11.11,11.11,0,0,1-4.1,9c-2.13,1.82-4.37,2.7-8.54,2.7h-4.72Zm2.59,20.9h2.27a10,10,0,0,0,6.69-2.1,8.94,8.94,0,0,0,3.15-7.11c0-5.6-3.92-9.24-9.84-9.24h-2.27Z"/><path class="cls-2" d="M749.45,722.05a8.59,8.59,0,0,1-1.79,2.34,7,7,0,0,1-4.83,1.79c-3.5,0-7.17-2.21-7.17-7.6,0-4.34,2.66-7.7,7-7.7a6.51,6.51,0,0,1,5.5,2.66,9.77,9.77,0,0,1,1.36,5.46h-11.3a4.65,4.65,0,0,0,4.62,4.94,4.4,4.4,0,0,0,3-1.05,5.82,5.82,0,0,0,1.51-2ZM747,716.9a4.35,4.35,0,0,0-4.27-3.78,4.42,4.42,0,0,0-4.27,3.78Z"/><path class="cls-2" d="M753.4,711.23h2.52v1.54a4.23,4.23,0,0,1,3.61-1.89,4.35,4.35,0,0,1,4,2.35,4.85,4.85,0,0,1,4.38-2.35c4.3,0,4.72,3.61,4.72,5.67v9.21h-2.52v-8.82c0-1.65-.21-3.82-2.59-3.82-2.9,0-3.22,2.8-3.22,4.55v8.09h-2.52v-8.61c0-1,0-4-2.62-4-2.87,0-3.19,3-3.19,4.73v7.91H753.4Z"/><path class="cls-2" d="M776.47,718.55a7.7,7.7,0,1,1,7.7,7.63A7.46,7.46,0,0,1,776.47,718.55Zm2.59,0a5.12,5.12,0,1,0,5.11-5.43A5,5,0,0,0,779.06,718.55Z"/><path class="cls-2" d="M806.85,700.24h2.52v25.52h-2.52v-2a6.15,6.15,0,0,1-5,2.45c-3.68,0-7.07-2.59-7.07-7.7s3.36-7.6,7.07-7.6a6,6,0,0,1,5,2.42Zm-9.45,18.24c0,3.11,1.75,5.46,4.76,5.46s4.83-2.56,4.83-5.43c0-3.74-2.59-5.39-4.83-5.39C799.67,713.12,797.4,714.94,797.4,718.48Z"/><path class="cls-2" d="M816.65,719.7a5,5,0,0,0,.7,3.12,3.07,3.07,0,0,0,2.55,1.12,3.1,3.1,0,0,0,2.56-1.12,5,5,0,0,0,.7-3.12v-8.47h2.52V720c0,1.79-.18,3.12-1.33,4.38a6.34,6.34,0,0,1-8.89,0c-1.16-1.26-1.33-2.59-1.33-4.38v-8.75h2.52Z"/><path class="cls-2" d="M833,700.24v25.52h-2.52V700.24Z"/><path class="cls-2" d="M848.85,711.23h2.52v14.53h-2.52v-2a6.15,6.15,0,0,1-5,2.45c-3.68,0-7.08-2.59-7.08-7.7s3.37-7.6,7.08-7.6a6,6,0,0,1,5,2.42Zm-9.45,7.25c0,3.11,1.75,5.46,4.76,5.46s4.83-2.56,4.83-5.43c0-3.74-2.59-5.39-4.83-5.39C841.67,713.12,839.4,714.94,839.4,718.48Z"/><path class="cls-2" d="M858.71,713.54v12.22h-2.52V713.54h-1.54v-2.31h1.54V706h2.52v5.25h2.52v2.31Z"/><path class="cls-2" d="M862.7,718.55a7.71,7.71,0,1,1,7.7,7.63A7.47,7.47,0,0,1,862.7,718.55Zm2.59,0a5.12,5.12,0,1,0,5.11-5.43A5,5,0,0,0,865.29,718.55Z"/><path class="cls-2" d="M882,711.23h2.52v1.58a4,4,0,0,1,3.29-1.93,5.25,5.25,0,0,1,2.24.6l-1.19,2.27a2.62,2.62,0,0,0-1.47-.49,2.45,2.45,0,0,0-2,.91c-.42.56-.84,1.54-.84,3.92v7.67H882Z"/></g></g><g id="Transmitter"><path id="Wide_box" data-name="Wide box" class="cls-3" d="M648,171V96.9C648,73.21,669.68,54,696.42,54h461.16c26.74,0,48.42,19.21,48.42,42.9V245.1c0,23.69-21.68,42.9-48.42,42.9H696.42C669.68,288,648,268.79,648,245.1V171"/><path class="cls-2" d="M846.36,314.67v15h-4.31v-15H838V311h12.43v3.64Z"/><path class="cls-2" d="M859.24,311a6.67,6.67,0,0,1,4.76,1.62,5.62,5.62,0,0,1,1.63,4.18,5.11,5.11,0,0,1-1.46,3.8,5.82,5.82,0,0,1-2.6,1.43l5.74,7.65H862l-5-7.37v7.37h-4.31V311ZM857,319.51h1a3.54,3.54,0,0,0,2.58-.81,2.5,2.5,0,0,0,.7-1.82,2.27,2.27,0,0,0-.87-1.9,4.23,4.23,0,0,0-2.38-.59h-1Z"/><path class="cls-2" d="M881,326.18h-7.06l-1.43,3.53H868L875.54,311h3.94l7.37,18.68h-4.48Zm-1.18-3.31-2.29-6.27-2.33,6.27Z"/><path class="cls-2" d="M889,329.71V311h3.75l10.14,12V311h4.31v18.68H903.4l-10.14-12.1v12.1Z"/><path class="cls-2" d="M920.87,315.59a4.55,4.55,0,0,0-3.14-1.34,2.34,2.34,0,0,0-1.82.64,1.67,1.67,0,0,0-.47,1.18,1.33,1.33,0,0,0,.42,1,7.51,7.51,0,0,0,2.35,1.06l1.4.53a7.58,7.58,0,0,1,2.55,1.43,4.67,4.67,0,0,1,1.37,3.47,6.7,6.7,0,0,1-1.65,4.62,7.25,7.25,0,0,1-5.3,1.91,7.86,7.86,0,0,1-3.69-.79,11.77,11.77,0,0,1-2.75-2l2.24-3.08a12.42,12.42,0,0,0,1.74,1.43,4.4,4.4,0,0,0,2.35.67,2.94,2.94,0,0,0,2-.65,1.9,1.9,0,0,0,.67-1.51,1.64,1.64,0,0,0-.64-1.34,9.23,9.23,0,0,0-2.18-1l-1.54-.53a6.36,6.36,0,0,1-2.61-1.48,4.61,4.61,0,0,1-1.12-3.25,5.75,5.75,0,0,1,1.63-4.2,6,6,0,0,1,4.62-1.71,9,9,0,0,1,5.54,1.85Z"/><path class="cls-2" d="M925.77,329.71l3-18.68h3.59L937,322.2,941.64,311h3.59l3,18.68h-4.31l-1.48-11.15-4.68,11.15h-1.51l-4.68-11.15-1.48,11.15Z"/><path class="cls-2" d="M955.84,311v18.68h-4.31V311Z"/><path class="cls-2" d="M966.56,314.67v15h-4.31v-15h-4.06V311h12.43v3.64Z"/><path class="cls-2" d="M980.9,314.67v15h-4.31v-15h-4.06V311H985v3.64Z"/><path class="cls-2" d="M997.78,314.67h-6.24v3.61h5.93v3.64h-5.93v4.15h6.24v3.64H987.23V311h10.55Z"/><path class="cls-2" d="M1007.83,311a6.67,6.67,0,0,1,4.76,1.62,5.62,5.62,0,0,1,1.63,4.18,5.07,5.07,0,0,1-1.46,3.8,5.82,5.82,0,0,1-2.6,1.43l5.74,7.65h-5.27l-5-7.37v7.37h-4.31V311Zm-2.24,8.48h1a3.54,3.54,0,0,0,2.58-.81,2.5,2.5,0,0,0,.7-1.82,2.25,2.25,0,0,0-.87-1.9,4.23,4.23,0,0,0-2.38-.59h-1Z"/><g id="QAM_Mod_white_2" data-name="QAM Mod white 2"><rect class="cls-4" x="702" y="99" width="198" height="144" rx="17.76"/><path class="cls-2" d="M781.5,162.36a12.5,12.5,0,0,1-7.23,2.19,12.42,12.42,0,1,1,12.49-12.41,12.11,12.11,0,0,1-3.38,8.6l3.52,3.63h-3.45Zm0-3.57a9.55,9.55,0,0,0,2.55-6.65,9.74,9.74,0,1,0-4.42,8.31l-5.8-6h3.46Z"/><path class="cls-2" d="M804.9,157.35H794.68l-2.88,6.77h-2.95l11-25.16,10.76,25.16h-2.95Zm-1-2.52-4-9.61-4.1,9.61Z"/><path class="cls-2" d="M813.22,164.12l4-25.34,9.21,20.27,9.4-20.31,3.74,25.38h-2.74l-2.26-16.7-8.17,17.71-8.07-17.71L816,164.12Z"/><path class="cls-2" d="M728.62,204.12l4-25.34,9.21,20.27,9.4-20.31L755,204.12h-2.73L750,187.42l-8.17,17.71-8.07-17.71-2.37,16.7Z"/><path class="cls-2" d="M758.94,196.71a7.92,7.92,0,1,1,7.91,7.84A7.67,7.67,0,0,1,758.94,196.71Zm2.66,0a5.26,5.26,0,1,0,5.25-5.58A5.17,5.17,0,0,0,761.6,196.71Z"/><path class="cls-2" d="M790.18,177.88h2.59v26.24h-2.59V202a6.28,6.28,0,0,1-5.11,2.52c-3.78,0-7.27-2.66-7.27-7.92s3.45-7.81,7.27-7.81a6.17,6.17,0,0,1,5.11,2.49Zm-9.72,18.75c0,3.21,1.8,5.62,4.9,5.62s5-2.63,5-5.58c0-3.85-2.67-5.54-5-5.54C782.8,191.13,780.46,193,780.46,196.63Z"/><path class="cls-2" d="M800.26,197.89a5.1,5.1,0,0,0,.72,3.21,3.58,3.58,0,0,0,5.26,0,5.1,5.1,0,0,0,.72-3.21v-8.71h2.59v9c0,1.84-.18,3.21-1.37,4.5a6.52,6.52,0,0,1-9.14,0c-1.19-1.29-1.37-2.66-1.37-4.5v-9h2.59Z"/><path class="cls-2" d="M817,177.88v26.24h-2.59V177.88Z"/><path class="cls-2" d="M833.38,189.18H836v14.94h-2.59V202a6.28,6.28,0,0,1-5.11,2.52c-3.78,0-7.27-2.66-7.27-7.92s3.45-7.81,7.27-7.81a6.17,6.17,0,0,1,5.11,2.49Zm-9.72,7.45c0,3.21,1.8,5.62,4.9,5.62s5-2.63,5-5.58c0-3.85-2.66-5.54-5-5.54C826,191.13,823.66,193,823.66,196.63Z"/><path class="cls-2" d="M843.53,191.56v12.56h-2.59V191.56h-1.58v-2.38h1.58v-5.4h2.59v5.4h2.59v2.38Z"/><path class="cls-2" d="M847.64,196.71a7.92,7.92,0,1,1,7.92,7.84A7.67,7.67,0,0,1,847.64,196.71Zm2.66,0a5.26,5.26,0,1,0,10.51,0c0-3.67-2.52-5.58-5.25-5.58A5.19,5.19,0,0,0,850.3,196.71Z"/><path class="cls-2" d="M867.44,189.18H870v1.62a4.16,4.16,0,0,1,3.38-2,5.35,5.35,0,0,1,2.3.62l-1.22,2.33a2.68,2.68,0,0,0-1.51-.5,2.51,2.51,0,0,0-2.09.94c-.43.57-.86,1.58-.86,4v7.88h-2.59Z"/></g></g><g id="Filter_white" data-name="Filter white"><g id="RxFilter_white" data-name="RxFilter white"><rect class="cls-4" x="954" y="621" width="198" height="144" rx="25.59"/><path class="cls-2" d="M1006,662.11a10.55,10.55,0,0,1,5.83,1.33,6.68,6.68,0,0,1-3.42,12l7.63,10.72h-3.24l-7.31-10.51h-.68v10.51h-2.66v-24Zm-1.19,11.13h1.69c3.31,0,5.29-1.59,5.29-4.4a3.72,3.72,0,0,0-1.9-3.52,6.79,6.79,0,0,0-3.46-.69h-1.62Z"/><path class="cls-2" d="M1032.14,682.31a9,9,0,0,1-1.84,2.41,7.27,7.27,0,0,1-5,1.83c-3.6,0-7.37-2.26-7.37-7.81,0-4.46,2.73-7.92,7.23-7.92a6.67,6.67,0,0,1,5.65,2.74,10,10,0,0,1,1.41,5.61h-11.63a4.78,4.78,0,0,0,4.75,5.08,4.54,4.54,0,0,0,3.06-1.08,6.12,6.12,0,0,0,1.55-2Zm-2.56-5.3a4.46,4.46,0,0,0-4.39-3.88,4.52,4.52,0,0,0-4.39,3.88Z"/><path class="cls-2" d="M1047.9,675.36a6,6,0,0,0-4.67-2.23,5.57,5.57,0,0,0,0,11.12,6.35,6.35,0,0,0,4.82-2.34V685a8,8,0,0,1-4.75,1.54,7.87,7.87,0,1,1,0-15.73,7.92,7.92,0,0,1,4.64,1.44Z"/><path class="cls-2" d="M1065.22,682.31a9,9,0,0,1-1.84,2.41,7.23,7.23,0,0,1-5,1.83c-3.6,0-7.38-2.26-7.38-7.81,0-4.46,2.73-7.92,7.23-7.92a6.67,6.67,0,0,1,5.65,2.74,10,10,0,0,1,1.41,5.61H1053.7a4.79,4.79,0,0,0,4.75,5.08,4.52,4.52,0,0,0,3.06-1.08,5.87,5.87,0,0,0,1.55-2Zm-2.56-5.3a4.46,4.46,0,0,0-4.39-3.88,4.54,4.54,0,0,0-4.39,3.88Z"/><path class="cls-2" d="M1070.58,663.7a1.84,1.84,0,1,1-1.83,1.83A1.84,1.84,0,0,1,1070.58,663.7Zm1.3,7.48v14.94h-2.59V671.18Z"/><path class="cls-2" d="M1077.5,671.18l4.46,10.08,4.46-10.08h2.88L1082,687.09l-7.34-15.91Z"/><path class="cls-2" d="M1105.29,682.31a9,9,0,0,1-1.84,2.41,7.27,7.27,0,0,1-5,1.83c-3.6,0-7.38-2.26-7.38-7.81,0-4.46,2.74-7.92,7.24-7.92a6.67,6.67,0,0,1,5.65,2.74,10,10,0,0,1,1.41,5.61h-11.63a4.78,4.78,0,0,0,4.75,5.08,4.54,4.54,0,0,0,3.06-1.08,6.12,6.12,0,0,0,1.55-2Zm-2.56-5.3a4.46,4.46,0,0,0-4.39-3.88A4.52,4.52,0,0,0,1094,677Z"/><path class="cls-2" d="M1033.9,704.63h-8.28v7.09h8v2.52h-8v11.88H1023v-24h10.94Z"/><path class="cls-2" d="M1039.23,703.7a1.84,1.84,0,1,1-1.84,1.83A1.84,1.84,0,0,1,1039.23,703.7Zm1.3,7.48v14.94h-2.6V711.18Z"/><path class="cls-2" d="M1048,699.88v26.24h-2.59V699.88Z"/><path class="cls-2" d="M1055.57,713.56v12.56H1053V713.56h-1.58v-2.38H1053v-5.4h2.59v5.4h2.6v2.38Z"/><path class="cls-2" d="M1073.86,722.31a9,9,0,0,1-1.84,2.41,7.25,7.25,0,0,1-5,1.83c-3.6,0-7.38-2.26-7.38-7.81,0-4.46,2.73-7.92,7.23-7.92a6.67,6.67,0,0,1,5.65,2.74,10,10,0,0,1,1.41,5.61h-11.63a4.79,4.79,0,0,0,4.75,5.08,4.52,4.52,0,0,0,3.06-1.08,5.87,5.87,0,0,0,1.55-2Zm-2.56-5.3a4.46,4.46,0,0,0-4.39-3.88,4.54,4.54,0,0,0-4.39,3.88Z"/><path class="cls-2" d="M1077.93,711.18h2.59v1.62a4.16,4.16,0,0,1,3.38-2,5.4,5.4,0,0,1,2.31.62l-1.23,2.34a2.62,2.62,0,0,0-1.51-.51,2.51,2.51,0,0,0-2.09.94c-.43.57-.86,1.58-.86,4v7.88h-2.59Z"/></g><g id="TxFilter_white" data-name="TxFilter white"><rect class="cls-4" x="954" y="99" width="198" height="144" rx="18.26"/><path class="cls-2" d="M1006.49,142.63v21.49h-2.67V142.63H998v-2.52h14.33v2.52Z"/><path class="cls-2" d="M1012.68,149.18h2.59v1.62a4.17,4.17,0,0,1,3.39-2,5.39,5.39,0,0,1,2.3.62l-1.22,2.33a2.73,2.73,0,0,0-1.52-.5,2.48,2.48,0,0,0-2.08.94c-.44.57-.87,1.58-.87,4v7.88h-2.59Z"/><path class="cls-2" d="M1034,149.18h2.59v14.94H1034V162a6.31,6.31,0,0,1-5.11,2.52c-3.78,0-7.28-2.66-7.28-7.92s3.46-7.81,7.28-7.81a6.19,6.19,0,0,1,5.11,2.49Zm-9.72,7.45c0,3.21,1.8,5.62,4.89,5.62s5-2.63,5-5.58c0-3.85-2.66-5.54-5-5.54C1026.65,151.13,1024.31,153,1024.31,156.63Z"/><path class="cls-2" d="M1041.52,149.18h2.59v1.73a5.28,5.28,0,0,1,4.28-2.09,5,5,0,0,1,4.28,2.06,6.6,6.6,0,0,1,.87,4v9.25H1051v-9.18a4.33,4.33,0,0,0-.69-2.73,2.91,2.91,0,0,0-2.44-1.08,3.26,3.26,0,0,0-2.63,1.15,6.28,6.28,0,0,0-1.08,4v7.81h-2.59Z"/><path class="cls-2" d="M1064.59,152.64a2.29,2.29,0,0,0-2.09-1.51,1.65,1.65,0,0,0-1.8,1.69c0,1.08.72,1.4,2.42,2.12a9.16,9.16,0,0,1,3.74,2.31,3.51,3.51,0,0,1,.79,2.41c0,3.13-2.27,4.89-5.15,4.89a5.34,5.34,0,0,1-5.22-3.81l2.24-.94a3.37,3.37,0,0,0,3,2.45,2.32,2.32,0,0,0,2.45-2.38c0-1.4-1-1.87-2.41-2.48a9.68,9.68,0,0,1-3.64-2.2,3.21,3.21,0,0,1-.68-2.19,4,4,0,0,1,4.35-4.18,4.31,4.31,0,0,1,4.1,2.7Z"/><path class="cls-2" d="M1071.11,149.18h2.59v1.59a4.33,4.33,0,0,1,3.71-2,4.44,4.44,0,0,1,4.06,2.42,5,5,0,0,1,4.5-2.42c4.43,0,4.86,3.71,4.86,5.83v9.47h-2.59v-9.07c0-1.69-.21-3.92-2.66-3.92-3,0-3.31,2.88-3.31,4.68v8.31h-2.6v-8.85c0-1.05,0-4.14-2.7-4.14-3,0-3.27,3.06-3.27,4.86v8.13h-2.59Z"/><path class="cls-2" d="M1097.06,141.7a1.84,1.84,0,1,1-1.83,1.83A1.84,1.84,0,0,1,1097.06,141.7Zm1.3,7.48v14.94h-2.59V149.18Z"/><path class="cls-2" d="M1105.92,151.56v12.56h-2.59V151.56h-1.59v-2.38h1.59v-5.4h2.59v5.4h2.59v2.38Z"/><path class="cls-2" d="M1033.9,182.63h-8.28v7.09h8v2.52h-8v11.88H1023v-24h10.94Z"/><path class="cls-2" d="M1039.23,181.7a1.84,1.84,0,1,1-1.84,1.83A1.84,1.84,0,0,1,1039.23,181.7Zm1.3,7.48v14.94h-2.6V189.18Z"/><path class="cls-2" d="M1048,177.88v26.24h-2.59V177.88Z"/><path class="cls-2" d="M1055.57,191.56v12.56H1053V191.56h-1.58v-2.38H1053v-5.4h2.59v5.4h2.6v2.38Z"/><path class="cls-2" d="M1073.86,200.31a9,9,0,0,1-1.84,2.41,7.25,7.25,0,0,1-5,1.83c-3.6,0-7.38-2.26-7.38-7.81,0-4.46,2.73-7.92,7.23-7.92a6.67,6.67,0,0,1,5.65,2.74,10,10,0,0,1,1.41,5.61h-11.63a4.79,4.79,0,0,0,4.75,5.08,4.52,4.52,0,0,0,3.06-1.08,5.87,5.87,0,0,0,1.55-2Zm-2.56-5.3a4.46,4.46,0,0,0-4.39-3.88,4.54,4.54,0,0,0-4.39,3.88Z"/><path class="cls-2" d="M1077.93,189.18h2.59v1.62a4.16,4.16,0,0,1,3.38-2,5.4,5.4,0,0,1,2.31.62l-1.23,2.33a2.68,2.68,0,0,0-1.51-.5,2.51,2.51,0,0,0-2.09.94c-.43.57-.86,1.58-.86,4v7.88h-2.59Z"/></g></g><g id="flow_lines" data-name="flow lines"><line class="cls-1" x1="459" y1="171" x2="695.14" y2="171"/><polygon class="cls-5" points="683.19 181.17 693.37 171 683.19 160.83 691.83 160.83 702 171 691.83 181.17 683.19 181.17"/><line class="cls-1" x1="900" y1="171" x2="947.14" y2="171"/><polygon class="cls-5" points="935.19 181.17 945.37 171 935.19 160.83 943.83 160.83 954 171 943.83 181.17 935.19 181.17"/><line class="cls-1" x1="954" y1="693" x2="906.86" y2="693"/><polygon class="cls-5" points="918.81 682.83 908.63 693 918.81 703.17 910.17 703.17 900 693 910.17 682.83 918.81 682.83"/><line class="cls-1" x1="702" y1="693" x2="465.86" y2="693"/><polygon class="cls-5" points="477.81 682.83 467.63 693 477.81 703.17 469.17 703.17 459 693 469.17 682.83 477.81 682.83"/></g></g><g id="Channel"><g id="Channel_box" data-name="Channel box"><rect class="cls-6" x="1350" y="306" width="252" height="252" rx="53.71" transform="translate(1044 1908) rotate(-90)"/><path class="cls-2" d="M1207.42,441.62a8.66,8.66,0,0,1-4.11,1,10,10,0,0,1-7.34-2.72,10,10,0,0,1,0-14.11,9.89,9.89,0,0,1,7-2.69,11,11,0,0,1,4.48,1v5a5.9,5.9,0,0,0-4.36-2,5.25,5.25,0,0,0-3.81,1.46,6,6,0,0,0-1.77,4.31,5.46,5.46,0,0,0,5.66,5.68,5.85,5.85,0,0,0,4.28-1.93Z"/><path class="cls-2" d="M1215.18,430.64h7.45v-7.11h4.31v18.68h-4.31v-7.93h-7.45v7.93h-4.31V423.53h4.31Z"/><path class="cls-2" d="M1242,438.68h-7l-1.43,3.53H1229l7.53-18.68h4l7.36,18.68h-4.48Zm-1.17-3.31-2.3-6.27-2.32,6.27Z"/><path class="cls-2" d="M1250,442.21V423.53h3.76l10.13,12v-12h4.31v18.68h-3.75l-10.13-12.1v12.1Z"/><path class="cls-2" d="M1272.27,442.21V423.53H1276l10.14,12v-12h4.31v18.68h-3.75l-10.14-12.1v12.1Z"/><path class="cls-2" d="M1305.12,427.17h-6.25v3.61h5.94v3.64h-5.94v4.15h6.25v3.64h-10.56V423.53h10.56Z"/><path class="cls-2" d="M1312.93,423.53v15h5.79v3.64h-10.1V423.53Z"/></g><g id="_2_blocks" data-name="2 blocks"><g id="AWGN_white_2" data-name="AWGN white 2"><rect class="cls-4" x="1386" y="450" width="180" height="63" rx="12"/><path class="cls-2" d="M1439.55,487.5h-9.65l-2.72,6.39h-2.79l10.44-23.76L1445,493.89h-2.79Zm-1-2.38-3.8-9.08-3.88,9.08Z"/><path class="cls-2" d="M1446.56,471.22l6,17,7.1-18.15,6.74,18.15,6.62-17h2.79l-9.52,23.86-6.66-18.15-7.14,18.15-8.7-23.86Z"/><path class="cls-2" d="M1490.69,482.5h9.45v.55a12.49,12.49,0,0,1-2.18,7.17,10.17,10.17,0,0,1-8.43,4.08,11.73,11.73,0,1,1,.07-23.46,11.29,11.29,0,0,1,6.93,2.25,14,14,0,0,1,2.62,2.68l-1.87,1.7a11.58,11.58,0,0,0-2.14-2.34,8.3,8.3,0,0,0-5.51-1.91,9.35,9.35,0,0,0-.07,18.7,7.89,7.89,0,0,0,6.94-3.81,7.15,7.15,0,0,0,.92-3.23h-6.73Z"/><path class="cls-2" d="M1504.76,493.89V470.26l17.68,18.53V471.22H1525v23.69l-17.68-18.53v17.51Z"/></g><g id="Multipath_blue" data-name="Multipath blue"><rect class="cls-7" x="1386" y="351" width="180" height="63" rx="12"/><path class="cls-4" d="M1407.57,394.16l3.42-21.34h4.1l5.31,12.77,5.31-12.77h4.1l3.42,21.34h-4.93l-1.69-12.73-5.35,12.73h-1.72l-5.35-12.73-1.69,12.73Z"/><path class="cls-4" d="M1441,379.89v7.87a3,3,0,0,0,.8,2.31,2.7,2.7,0,0,0,1.92.67,2.89,2.89,0,0,0,2-.67,3.12,3.12,0,0,0,.77-2.31v-7.87h4.6v8.32a5.74,5.74,0,0,1-1.6,4.58c-1.63,1.6-4,1.85-5.72,1.85s-4.13-.25-5.76-1.85a5.44,5.44,0,0,1-1.57-4.29v-8.61Z"/><path class="cls-4" d="M1459.34,370.84v23.32h-4.6V370.84Z"/><path class="cls-4" d="M1467.79,383.6v10.56h-4.61V383.6h-1.6v-3.71h1.6v-4.6h4.61v4.6h2.85v3.71Z"/><path class="cls-4" d="M1475.25,371.13a2.69,2.69,0,1,1-2.69,2.68A2.66,2.66,0,0,1,1475.25,371.13Zm2.3,8.76v14.27h-4.61V379.89Z"/><path class="cls-4" d="M1486.06,401.49h-4.6v-21.6h4.6v1.7a5.36,5.36,0,0,1,4.45-2.18,6.92,6.92,0,0,1,5.06,2,7.8,7.8,0,0,1,2.14,5.57,7.72,7.72,0,0,1-2.27,5.72,6.33,6.33,0,0,1-4.83,1.92,5.17,5.17,0,0,1-4.55-2.11Zm.77-17.05a3.84,3.84,0,0,0-1.09,2.62,3.62,3.62,0,0,0,6.12,2.62A3.91,3.91,0,0,0,1493,387a3.59,3.59,0,0,0-1.08-2.59,3.64,3.64,0,0,0-2.5-1A3.54,3.54,0,0,0,1486.83,384.44Z"/><path class="cls-4" d="M1511.54,379.89h4.6v14.27h-4.6v-1.72a4.75,4.75,0,0,1-4.23,2.2,6.76,6.76,0,0,1-5.34-2.17,7.54,7.54,0,0,1-2.08-5.35,8.07,8.07,0,0,1,2.21-5.75,6.86,6.86,0,0,1,5-2,5.37,5.37,0,0,1,4.48,2.08Zm-5.86,4.51a3.59,3.59,0,0,0-1.06,2.6,3.71,3.71,0,0,0,1,2.56,3.79,3.79,0,0,0,2.72,1.12,3.41,3.41,0,0,0,2.4-1,3.79,3.79,0,0,0,.07-5.31,3.88,3.88,0,0,0-2.56-1A3.66,3.66,0,0,0,1505.68,384.4Z"/><path class="cls-4" d="M1524.46,383.6v10.56h-4.6V383.6h-1.6v-3.71h1.6v-4.6h4.6v4.6h2.85v3.71Z"/><path class="cls-4" d="M1529.42,370.84H1534v10.75a5.84,5.84,0,0,1,1.73-1.47,5.38,5.38,0,0,1,2.78-.61,5.45,5.45,0,0,1,4,1.44,5.64,5.64,0,0,1,1.4,4.16v9.05h-4.6v-7.32a3.85,3.85,0,0,0-.77-2.85,2.6,2.6,0,0,0-1.79-.64,2.54,2.54,0,0,0-1.83.7,4.06,4.06,0,0,0-1,3v7.13h-4.61Z"/></g><g id="flow_txrx_2" data-name="flow txrx 2"><path class="cls-1" d="M1476,513V668.45s0,24.55-27,24.55H1158.86"/><polygon class="cls-5" points="1170.81 682.83 1160.63 693 1170.81 703.17 1162.17 703.17 1152 693 1162.17 682.83 1170.81 682.83"/><path class="cls-1" d="M1152,171h297c27,0,27,24.55,27,26.27l0,146.87"/><polygon class="cls-5" points="1465.78 332.19 1475.95 342.37 1486.13 332.19 1486.13 340.83 1475.95 351 1465.78 340.82 1465.78 332.19"/></g><line class="cls-1" x1="1476" y1="414" x2="1476" y2="443.14"/><polygon class="cls-5" points="1465.83 431.19 1476 441.37 1486.17 431.19 1486.17 439.83 1476 450 1465.83 439.83 1465.83 431.19"/></g></g></svg>