<svg xmlns="http://www.w3.org/2000/svg" viewBox="0 0 1764 864"><defs><style>.cls-1{fill:none;stroke:#2f7eb2;stroke-miterlimit:10;stroke-width:4px;}.cls-2{fill:#636569;}.cls-3{fill:#b0d0e4;}.cls-4{fill:#fff;}.cls-5{fill:#004b87;}.cls-6{fill:#2f7eb2;}.cls-7{fill:#e6e6e6;}</style></defs><g id="bits"><g id="src_bits" data-name="src bits"><circle class="cls-1" cx="378" cy="171" r="81"/><path class="cls-2" d="M341,154.64a2.29,2.29,0,0,0-2.09-1.51,1.65,1.65,0,0,0-1.8,1.69c0,1.08.72,1.4,2.41,2.12,2.16.9,3.17,1.59,3.75,2.31a3.51,3.51,0,0,1,.79,2.41c0,3.13-2.27,4.89-5.15,4.89a5.34,5.34,0,0,1-5.22-3.81l2.23-.94a3.4,3.4,0,0,0,3,2.45,2.32,2.32,0,0,0,2.45-2.38c0-1.4-1-1.87-2.42-2.48a9.62,9.62,0,0,1-3.63-2.2,3.22,3.22,0,0,1-.69-2.19,4,4,0,0,1,4.36-4.18,4.31,4.31,0,0,1,4.1,2.7Z"/><path class="cls-2" d="M346.59,158.71a7.92,7.92,0,1,1,7.92,7.84A7.67,7.67,0,0,1,346.59,158.71Zm2.66,0a5.27,5.27,0,1,0,5.26-5.58A5.18,5.18,0,0,0,349.25,158.71Z"/><path class="cls-2" d="M369,159.89a5.1,5.1,0,0,0,.72,3.21,3.58,3.58,0,0,0,5.26,0,5.1,5.1,0,0,0,.72-3.21v-8.71h2.59v9c0,1.84-.18,3.21-1.37,4.5a6.52,6.52,0,0,1-9.14,0c-1.19-1.29-1.37-2.66-1.37-4.5v-9H369Z"/><path class="cls-2" d="M383.17,151.18h2.59v1.62a4.15,4.15,0,0,1,3.38-2,5.35,5.35,0,0,1,2.3.62l-1.22,2.33a2.72,2.72,0,0,0-1.51-.5,2.51,2.51,0,0,0-2.09.94c-.43.57-.86,1.58-.86,4v7.88h-2.59Z"/><path class="cls-2" d="M404.66,155.36a6,6,0,0,0-4.68-2.23,5.57,5.57,0,0,0,0,11.12,6.33,6.33,0,0,0,4.82-2.34V165a8,8,0,0,1-4.75,1.54,7.87,7.87,0,1,1,0-15.73,8,8,0,0,1,4.65,1.44Z"/><path class="cls-2" d="M422,162.31a9.21,9.21,0,0,1-1.83,2.41,7.27,7.27,0,0,1-5,1.83c-3.6,0-7.38-2.26-7.38-7.81,0-4.46,2.73-7.92,7.23-7.92a6.69,6.69,0,0,1,5.66,2.74,10.07,10.07,0,0,1,1.4,5.61H410.45a4.79,4.79,0,0,0,4.75,5.08,4.52,4.52,0,0,0,3.06-1.08,5.87,5.87,0,0,0,1.55-2Zm-2.55-5.3a4.47,4.47,0,0,0-4.4-3.88,4.54,4.54,0,0,0-4.39,3.88Z"/><path class="cls-2" d="M359.64,202.12h-2.59V175.88h2.59v13.39a6.44,6.44,0,0,1,5.11-2.45c4.68,0,7.27,3.89,7.27,7.92s-2.63,7.81-7.16,7.81a6.35,6.35,0,0,1-5.22-2.52Zm9.72-7.38c0-3.67-2.48-5.61-4.9-5.61s-5,2-5,5.58c0,3.06,1.94,5.54,5,5.54S369.36,197.73,369.36,194.74Z"/><path class="cls-2" d="M377.28,179.7a1.84,1.84,0,1,1-1.84,1.83A1.84,1.84,0,0,1,377.28,179.7Zm1.3,7.48v14.94H376V187.18Z"/><path class="cls-2" d="M386.14,189.56v12.56h-2.6V189.56H382v-2.38h1.58v-5.4h2.6v5.4h2.59v2.38Z"/><path class="cls-2" d="M397.33,190.64a2.29,2.29,0,0,0-2.09-1.51,1.65,1.65,0,0,0-1.8,1.69c0,1.08.72,1.4,2.41,2.12,2.16.9,3.17,1.59,3.75,2.31a3.51,3.51,0,0,1,.79,2.41c0,3.13-2.27,4.89-5.15,4.89a5.34,5.34,0,0,1-5.22-3.81l2.23-.94a3.4,3.4,0,0,0,3,2.45,2.32,2.32,0,0,0,2.45-2.38c0-1.4-1-1.87-2.42-2.48a9.71,9.71,0,0,1-3.63-2.2A3.21,3.21,0,0,1,391,191a4,4,0,0,1,4.35-4.18,4.31,4.31,0,0,1,4.1,2.7Z"/></g><g id="rec_bits" data-name="rec bits"><circle class="cls-1" cx="378" cy="693" r="81"/><path class="cls-2" d="M320.85,673.18h2.59v1.62a4.17,4.17,0,0,1,3.39-2,5.39,5.39,0,0,1,2.3.62l-1.22,2.33a2.73,2.73,0,0,0-1.52-.5,2.48,2.48,0,0,0-2.08.94c-.44.57-.87,1.58-.87,4v7.88h-2.59Z"/><path class="cls-2" d="M343.89,684.31a9,9,0,0,1-1.84,2.41,7.25,7.25,0,0,1-5,1.83c-3.6,0-7.38-2.26-7.38-7.81,0-4.46,2.73-7.92,7.23-7.92a6.67,6.67,0,0,1,5.65,2.74,10,10,0,0,1,1.41,5.61H332.37a4.79,4.79,0,0,0,4.75,5.08,4.52,4.52,0,0,0,3.06-1.08,5.87,5.87,0,0,0,1.55-2Zm-2.56-5.3a4.46,4.46,0,0,0-4.39-3.88,4.54,4.54,0,0,0-4.39,3.88Z"/><path class="cls-2" d="M359.66,677.36a6,6,0,0,0-4.68-2.23,5.57,5.57,0,0,0,0,11.12,6.37,6.37,0,0,0,4.83-2.34V687a8,8,0,0,1-4.76,1.54,7.87,7.87,0,1,1,0-15.73,8,8,0,0,1,4.65,1.44Z"/><path class="cls-2" d="M377,684.31a9.21,9.21,0,0,1-1.83,2.41,7.27,7.27,0,0,1-5,1.83c-3.6,0-7.38-2.26-7.38-7.81,0-4.46,2.74-7.92,7.24-7.92a6.68,6.68,0,0,1,5.65,2.74,10.07,10.07,0,0,1,1.4,5.61H365.45a4.79,4.79,0,0,0,4.76,5.08,4.52,4.52,0,0,0,3.05-1.08,5.87,5.87,0,0,0,1.55-2Zm-2.55-5.3a4.47,4.47,0,0,0-4.39-3.88,4.54,4.54,0,0,0-4.4,3.88Z"/><path class="cls-2" d="M382.34,665.7a1.84,1.84,0,1,1-1.84,1.83A1.83,1.83,0,0,1,382.34,665.7Zm1.29,7.48v14.94H381V673.18Z"/><path class="cls-2" d="M389.25,673.18l4.46,10.08,4.47-10.08h2.88l-7.35,15.91-7.34-15.91Z"/><path class="cls-2" d="M417,684.31a9,9,0,0,1-1.84,2.41,7.25,7.25,0,0,1-5,1.83c-3.6,0-7.38-2.26-7.38-7.81,0-4.46,2.73-7.92,7.23-7.92a6.67,6.67,0,0,1,5.65,2.74,10,10,0,0,1,1.41,5.61H405.52a4.79,4.79,0,0,0,4.75,5.08,4.52,4.52,0,0,0,3.06-1.08,5.87,5.87,0,0,0,1.55-2Zm-2.56-5.3a4.46,4.46,0,0,0-4.39-3.88A4.54,4.54,0,0,0,405.7,679Z"/><path class="cls-2" d="M432.56,661.88h2.59v26.24h-2.59V686a6.31,6.31,0,0,1-5.12,2.52c-3.78,0-7.27-2.66-7.27-7.92s3.46-7.81,7.27-7.81a6.21,6.21,0,0,1,5.12,2.49Zm-9.72,18.75c0,3.21,1.8,5.62,4.89,5.62s5-2.63,5-5.58c0-3.85-2.66-5.54-5-5.54C425.18,675.13,422.84,677,422.84,680.63Z"/><path class="cls-2" d="M359.64,724.12h-2.59V697.88h2.59v13.39a6.44,6.44,0,0,1,5.11-2.45c4.68,0,7.27,3.89,7.27,7.92s-2.63,7.81-7.16,7.81a6.35,6.35,0,0,1-5.22-2.52Zm9.72-7.38c0-3.67-2.48-5.61-4.9-5.61s-5,2-5,5.58c0,3.06,1.94,5.54,5,5.54S369.36,719.73,369.36,716.74Z"/><path class="cls-2" d="M377.28,701.7a1.84,1.84,0,1,1-1.84,1.83A1.84,1.84,0,0,1,377.28,701.7Zm1.3,7.48v14.94H376V709.18Z"/><path class="cls-2" d="M386.14,711.56v12.56h-2.6V711.56H382v-2.38h1.58v-5.4h2.6v5.4h2.59v2.38Z"/><path class="cls-2" d="M397.33,712.64a2.29,2.29,0,0,0-2.09-1.51,1.65,1.65,0,0,0-1.8,1.69c0,1.08.72,1.4,2.41,2.12,2.16.9,3.17,1.59,3.75,2.31a3.51,3.51,0,0,1,.79,2.41c0,3.13-2.27,4.89-5.15,4.89a5.34,5.34,0,0,1-5.22-3.81l2.23-.94a3.4,3.4,0,0,0,3,2.45,2.32,2.32,0,0,0,2.45-2.38c0-1.4-1-1.87-2.42-2.48a9.71,9.71,0,0,1-3.63-2.2A3.21,3.21,0,0,1,391,713a4,4,0,0,1,4.35-4.18,4.31,4.31,0,0,1,4.1,2.7Z"/></g><g id="bit_text" data-name="bit text"><path class="cls-2" d="M290.18,309.48h-2.64v-16.8a13.5,13.5,0,0,1-2.5,1.81,18,18,0,0,1-2.77,1.37v-2.55a16.29,16.29,0,0,0,3.86-2.52,10,10,0,0,0,2.35-2.87h1.7Z"/><path class="cls-2" d="M305.26,298.89a19.7,19.7,0,0,1,.79-6.13,7.6,7.6,0,0,1,2.33-3.58,5.94,5.94,0,0,1,3.89-1.26,6.39,6.39,0,0,1,3,.69,5.82,5.82,0,0,1,2.15,2,10.87,10.87,0,0,1,1.34,3.19,21.42,21.42,0,0,1,.48,5.08,19.62,19.62,0,0,1-.78,6.1,7.66,7.66,0,0,1-2.32,3.59,6,6,0,0,1-3.9,1.27,5.91,5.91,0,0,1-4.88-2.23Q305.26,304.93,305.26,298.89Zm2.71,0c0,3.52.42,5.87,1.24,7a3.68,3.68,0,0,0,3.06,1.75,3.64,3.64,0,0,0,3.05-1.76c.83-1.17,1.24-3.52,1.24-7s-.41-5.89-1.24-7.05a3.66,3.66,0,0,0-3.08-1.74,3.37,3.37,0,0,0-2.9,1.54C308.43,293,308,295.36,308,298.89Z"/><path class="cls-2" d="M330.28,298.89a19.7,19.7,0,0,1,.79-6.13,7.6,7.6,0,0,1,2.33-3.58,5.94,5.94,0,0,1,3.89-1.26,6.39,6.39,0,0,1,3,.69,5.82,5.82,0,0,1,2.15,2,10.6,10.6,0,0,1,1.33,3.19,20.84,20.84,0,0,1,.49,5.08,19.62,19.62,0,0,1-.78,6.1,7.66,7.66,0,0,1-2.32,3.59,6,6,0,0,1-3.9,1.27,5.91,5.91,0,0,1-4.88-2.23Q330.28,304.93,330.28,298.89Zm2.71,0c0,3.52.42,5.87,1.24,7a3.68,3.68,0,0,0,3.06,1.75,3.64,3.64,0,0,0,3-1.76c.83-1.17,1.24-3.52,1.24-7s-.41-5.89-1.24-7.05a3.66,3.66,0,0,0-3.08-1.74,3.37,3.37,0,0,0-2.9,1.54C333.45,293,333,295.36,333,298.89Z"/><path class="cls-2" d="M365.24,309.48H362.6v-16.8a13.85,13.85,0,0,1-2.5,1.81,18,18,0,0,1-2.77,1.37v-2.55a16.29,16.29,0,0,0,3.86-2.52,10,10,0,0,0,2.35-2.87h1.7Z"/><path class="cls-2" d="M390.25,309.48h-2.63v-16.8a13.85,13.85,0,0,1-2.5,1.81,17.65,17.65,0,0,1-2.78,1.37v-2.55a16.16,16.16,0,0,0,3.87-2.52,10,10,0,0,0,2.35-2.87h1.69Z"/><path class="cls-2" d="M405.34,298.89a19.41,19.41,0,0,1,.79-6.13,7.6,7.6,0,0,1,2.33-3.58,5.93,5.93,0,0,1,3.88-1.26,6.4,6.4,0,0,1,3,.69,5.9,5.9,0,0,1,2.15,2,10.6,10.6,0,0,1,1.33,3.19,20.84,20.84,0,0,1,.49,5.08,19.62,19.62,0,0,1-.78,6.1,7.66,7.66,0,0,1-2.32,3.59,6,6,0,0,1-3.91,1.27,5.89,5.89,0,0,1-4.87-2.23Q405.34,304.93,405.34,298.89Zm2.71,0c0,3.52.42,5.87,1.24,7a3.54,3.54,0,0,0,6.11,0c.82-1.17,1.24-3.52,1.24-7s-.42-5.89-1.24-7.05a3.68,3.68,0,0,0-3.08-1.74,3.36,3.36,0,0,0-2.9,1.54C408.51,293,408.05,295.36,408.05,298.89Z"/><path class="cls-2" d="M440.29,309.48h-2.63v-16.8a13.85,13.85,0,0,1-2.5,1.81,18.09,18.09,0,0,1-2.78,1.37v-2.55a16.16,16.16,0,0,0,3.87-2.52,10,10,0,0,0,2.34-2.87h1.7Z"/><path class="cls-2" d="M465.31,309.48h-2.63v-16.8a13.85,13.85,0,0,1-2.5,1.81,18.09,18.09,0,0,1-2.78,1.37v-2.55a16.16,16.16,0,0,0,3.87-2.52,10,10,0,0,0,2.34-2.87h1.7Z"/><path class="cls-2" d="M481.88,309.48v-3h3v3Z"/><path class="cls-2" d="M490.22,309.48v-3h3v3Z"/><path class="cls-2" d="M498.55,309.48v-3h3v3Z"/><path class="cls-2" d="M290.18,579.48h-2.64v-16.8a13.5,13.5,0,0,1-2.5,1.81,18,18,0,0,1-2.77,1.37v-2.55a16.29,16.29,0,0,0,3.86-2.52,10,10,0,0,0,2.35-2.87h1.7Z"/><path class="cls-2" d="M305.26,568.89a19.7,19.7,0,0,1,.79-6.13,7.6,7.6,0,0,1,2.33-3.58,5.94,5.94,0,0,1,3.89-1.26,6.39,6.39,0,0,1,3,.69,5.82,5.82,0,0,1,2.15,2,10.87,10.87,0,0,1,1.34,3.19,21.42,21.42,0,0,1,.48,5.08,19.62,19.62,0,0,1-.78,6.1,7.66,7.66,0,0,1-2.32,3.59,6,6,0,0,1-3.9,1.27,5.91,5.91,0,0,1-4.88-2.23Q305.26,574.94,305.26,568.89Zm2.71,0c0,3.52.42,5.87,1.24,7a3.68,3.68,0,0,0,3.06,1.75,3.64,3.64,0,0,0,3.05-1.76c.83-1.17,1.24-3.52,1.24-7s-.41-5.89-1.24-7a3.66,3.66,0,0,0-3.08-1.74,3.37,3.37,0,0,0-2.9,1.54C308.43,563,308,565.36,308,568.89Z"/><path class="cls-2" d="M330.28,568.89a19.7,19.7,0,0,1,.79-6.13,7.6,7.6,0,0,1,2.33-3.58,5.94,5.94,0,0,1,3.89-1.26,6.39,6.39,0,0,1,3,.69,5.82,5.82,0,0,1,2.15,2,10.6,10.6,0,0,1,1.33,3.19,20.84,20.84,0,0,1,.49,5.08,19.62,19.62,0,0,1-.78,6.1,7.66,7.66,0,0,1-2.32,3.59,6,6,0,0,1-3.9,1.27,5.91,5.91,0,0,1-4.88-2.23Q330.28,574.94,330.28,568.89Zm2.71,0c0,3.52.42,5.87,1.24,7a3.68,3.68,0,0,0,3.06,1.75,3.64,3.64,0,0,0,3-1.76c.83-1.17,1.24-3.52,1.24-7s-.41-5.89-1.24-7a3.66,3.66,0,0,0-3.08-1.74,3.37,3.37,0,0,0-2.9,1.54C333.45,563,333,565.36,333,568.89Z"/><path class="cls-2" d="M365.24,579.48H362.6v-16.8a13.85,13.85,0,0,1-2.5,1.81,18,18,0,0,1-2.77,1.37v-2.55a16.29,16.29,0,0,0,3.86-2.52,10,10,0,0,0,2.35-2.87h1.7Z"/><path class="cls-2" d="M380.32,568.89a19.41,19.41,0,0,1,.79-6.13,7.6,7.6,0,0,1,2.33-3.58,5.94,5.94,0,0,1,3.89-1.26,6.39,6.39,0,0,1,3,.69,5.9,5.9,0,0,1,2.15,2,10.6,10.6,0,0,1,1.33,3.19,20.84,20.84,0,0,1,.49,5.08,19.62,19.62,0,0,1-.78,6.1,7.66,7.66,0,0,1-2.32,3.59,6,6,0,0,1-3.9,1.27,5.9,5.9,0,0,1-4.88-2.23Q380.32,574.94,380.32,568.89Zm2.71,0c0,3.52.42,5.87,1.24,7a3.54,3.54,0,0,0,6.11,0c.82-1.17,1.24-3.52,1.24-7s-.42-5.89-1.24-7a3.68,3.68,0,0,0-3.08-1.74,3.36,3.36,0,0,0-2.9,1.54C383.49,563,383,565.36,383,568.89Z"/><path class="cls-2" d="M405.34,568.89a19.41,19.41,0,0,1,.79-6.13,7.6,7.6,0,0,1,2.33-3.58,5.93,5.93,0,0,1,3.88-1.26,6.4,6.4,0,0,1,3,.69,5.9,5.9,0,0,1,2.15,2,10.6,10.6,0,0,1,1.33,3.19,20.84,20.84,0,0,1,.49,5.08,19.62,19.62,0,0,1-.78,6.1,7.66,7.66,0,0,1-2.32,3.59,6,6,0,0,1-3.91,1.27,5.89,5.89,0,0,1-4.87-2.23Q405.34,574.94,405.34,568.89Zm2.71,0c0,3.52.42,5.87,1.24,7a3.54,3.54,0,0,0,6.11,0c.82-1.17,1.24-3.52,1.24-7s-.42-5.89-1.24-7a3.68,3.68,0,0,0-3.08-1.74,3.36,3.36,0,0,0-2.9,1.54C408.51,563,408.05,565.36,408.05,568.89Z"/><path class="cls-2" d="M440.29,579.48h-2.63v-16.8a13.85,13.85,0,0,1-2.5,1.81,18.09,18.09,0,0,1-2.78,1.37v-2.55a16.16,16.16,0,0,0,3.87-2.52,10,10,0,0,0,2.34-2.87h1.7Z"/><path class="cls-2" d="M465.31,579.48h-2.63v-16.8a13.85,13.85,0,0,1-2.5,1.81,18.09,18.09,0,0,1-2.78,1.37v-2.55a16.16,16.16,0,0,0,3.87-2.52,10,10,0,0,0,2.34-2.87h1.7Z"/><path class="cls-2" d="M481.88,579.48v-3h3v3Z"/><path class="cls-2" d="M490.22,579.48v-3h3v3Z"/><path class="cls-2" d="M498.55,579.48v-3h3v3Z"/></g></g><g id="TxRx_3_blocks" data-name="TxRx 3 blocks"><g id="Receiver"><path id="box" class="cls-3" d="M558,683.92V617.15c0-22.72,20.8-41.15,46.45-41.15H1251c25.65,0,45,22.27,45,45V765c0,22.73-19.35,45-45,45H604.45C578.8,810,558,791.57,558,768.85V683.92"/><path class="cls-2" d="M875.27,536a6.69,6.69,0,0,1,4.76,1.62,5.66,5.66,0,0,1,1.62,4.18,5.1,5.1,0,0,1-1.45,3.8,5.85,5.85,0,0,1-2.61,1.43l5.74,7.65h-5.26l-5-7.37v7.37h-4.31V536ZM873,544.51h1a3.55,3.55,0,0,0,2.58-.81,2.54,2.54,0,0,0,.7-1.82,2.27,2.27,0,0,0-.87-1.9,4.23,4.23,0,0,0-2.38-.59h-1Z"/><path class="cls-2" d="M896.27,539.67H890v3.61H896v3.64H890v4.15h6.24v3.64H885.71V536h10.56Z"/><path class="cls-2" d="M913.27,554.12a8.69,8.69,0,0,1-4.12,1,10,10,0,0,1-7.34-2.72,10,10,0,0,1,0-14.11,9.94,9.94,0,0,1,7-2.69,11,11,0,0,1,4.48,1v5a5.93,5.93,0,0,0-4.37-2,5.25,5.25,0,0,0-3.81,1.46,6,6,0,0,0-1.76,4.31,5.44,5.44,0,0,0,5.65,5.68,5.87,5.87,0,0,0,4.29-1.93Z"/><path class="cls-2" d="M927.27,539.67H921v3.61H927v3.64H921v4.15h6.25v3.64H916.71V536h10.56Z"/><path class="cls-2" d="M935.16,536v18.68h-4.31V536Z"/><path class="cls-2" d="M942.05,536l4.73,12,4.73-12h4.65l-7.92,18.68h-2.91L937.4,536Z"/><path class="cls-2" d="M968.88,539.67h-6.25v3.61h5.94v3.64h-5.94v4.15h6.25v3.64H958.32V536h10.56Z"/><path class="cls-2" d="M978.93,536a6.69,6.69,0,0,1,4.76,1.62,5.66,5.66,0,0,1,1.62,4.18,5.07,5.07,0,0,1-1.46,3.8,5.76,5.76,0,0,1-2.6,1.43l5.74,7.65h-5.26l-5-7.37v7.37h-4.31V536Zm-2.24,8.48h1a3.53,3.53,0,0,0,2.57-.81,2.5,2.5,0,0,0,.7-1.82,2.27,2.27,0,0,0-.86-1.9,4.26,4.26,0,0,0-2.39-.59h-1Z"/><g id="QAM_Demod_white_2" data-name="QAM Demod white 2"><rect class="cls-4" x="594" y="621" width="198" height="144" rx="20.9"/><path class="cls-2" d="M674.05,684a12.12,12.12,0,0,1-7,2.14,12.08,12.08,0,1,1,12.15-12.08,11.76,11.76,0,0,1-3.29,8.37L679.3,686h-3.36Zm0-3.46a9.3,9.3,0,0,0,2.49-6.48,9.49,9.49,0,1,0-4.31,8.09l-5.63-5.81h3.36Z"/><path class="cls-2" d="M696.8,679.18h-9.94l-2.8,6.58h-2.87l10.74-24.47,10.47,24.47h-2.87Zm-1-2.45-3.92-9.35-4,9.35Z"/><path class="cls-2" d="M704.88,685.76l3.89-24.64,9,19.7,9.13-19.74,3.65,24.68h-2.67l-2.2-16.24-7.95,17.22-7.84-17.22-2.31,16.24Z"/><path class="cls-2" d="M607.08,702.41h4.76a12.73,12.73,0,0,1,8.61,2.73,11.4,11.4,0,0,1,4,9,11.11,11.11,0,0,1-4.1,9c-2.13,1.82-4.37,2.7-8.54,2.7h-4.72Zm2.59,20.9h2.27a10,10,0,0,0,6.69-2.1,8.94,8.94,0,0,0,3.15-7.11c0-5.6-3.92-9.24-9.84-9.24h-2.27Z"/><path class="cls-2" d="M641.45,722.05a8.59,8.59,0,0,1-1.79,2.34,7,7,0,0,1-4.83,1.79c-3.5,0-7.17-2.21-7.17-7.6,0-4.34,2.66-7.7,7-7.7a6.51,6.51,0,0,1,5.5,2.66,9.77,9.77,0,0,1,1.36,5.46h-11.3a4.65,4.65,0,0,0,4.62,4.94,4.4,4.4,0,0,0,3-1.05,5.82,5.82,0,0,0,1.51-2ZM639,716.9a4.35,4.35,0,0,0-4.27-3.78,4.42,4.42,0,0,0-4.27,3.78Z"/><path class="cls-2" d="M645.4,711.23h2.52v1.54a4.23,4.23,0,0,1,3.61-1.89,4.35,4.35,0,0,1,4,2.35,4.85,4.85,0,0,1,4.38-2.35c4.3,0,4.72,3.61,4.72,5.67v9.21h-2.52v-8.82c0-1.65-.21-3.82-2.59-3.82-2.9,0-3.22,2.8-3.22,4.55v8.09h-2.52v-8.61c0-1,0-4-2.62-4-2.87,0-3.19,3-3.19,4.73v7.91H645.4Z"/><path class="cls-2" d="M668.47,718.55a7.7,7.7,0,1,1,7.7,7.63A7.46,7.46,0,0,1,668.47,718.55Zm2.59,0a5.12,5.12,0,1,0,5.11-5.43A5,5,0,0,0,671.06,718.55Z"/><path class="cls-2" d="M698.85,700.24h2.52v25.52h-2.52v-2a6.15,6.15,0,0,1-5,2.45c-3.68,0-7.07-2.59-7.07-7.7s3.36-7.6,7.07-7.6a6,6,0,0,1,5,2.42Zm-9.45,18.24c0,3.11,1.75,5.46,4.76,5.46s4.83-2.56,4.83-5.43c0-3.74-2.59-5.39-4.83-5.39C691.67,713.12,689.4,714.94,689.4,718.48Z"/><path class="cls-2" d="M708.65,719.7a5,5,0,0,0,.7,3.12,3.07,3.07,0,0,0,2.55,1.12,3.1,3.1,0,0,0,2.56-1.12,5,5,0,0,0,.7-3.12v-8.47h2.52V720c0,1.79-.18,3.12-1.33,4.38a6.34,6.34,0,0,1-8.89,0c-1.16-1.26-1.33-2.59-1.33-4.38v-8.75h2.52Z"/><path class="cls-2" d="M725,700.24v25.52h-2.52V700.24Z"/><path class="cls-2" d="M740.85,711.23h2.52v14.53h-2.52v-2a6.15,6.15,0,0,1-5,2.45c-3.68,0-7.08-2.59-7.08-7.7s3.37-7.6,7.08-7.6a6,6,0,0,1,5,2.42Zm-9.45,7.25c0,3.11,1.75,5.46,4.76,5.46s4.83-2.56,4.83-5.43c0-3.74-2.59-5.39-4.83-5.39C733.67,713.12,731.4,714.94,731.4,718.48Z"/><path class="cls-2" d="M750.71,713.54v12.22h-2.52V713.54h-1.54v-2.31h1.54V706h2.52v5.25h2.52v2.31Z"/><path class="cls-2" d="M754.7,718.55a7.71,7.71,0,1,1,7.7,7.63A7.47,7.47,0,0,1,754.7,718.55Zm2.59,0a5.12,5.12,0,1,0,5.11-5.43A5,5,0,0,0,757.29,718.55Z"/><path class="cls-2" d="M774,711.23h2.52v1.58a4,4,0,0,1,3.29-1.93,5.25,5.25,0,0,1,2.24.6l-1.19,2.27a2.62,2.62,0,0,0-1.47-.49,2.45,2.45,0,0,0-2,.91c-.42.56-.84,1.54-.84,3.92v7.67H774Z"/></g></g><g id="Transmitter"><path id="box-2" data-name="box" class="cls-3" d="M558,171V99c0-23.69,18.26-45,45-45h648c26.74,0,45,21.31,45,45V243c0,23.69-18.26,45-45,45H603c-26.74,0-45-21.31-45-45V171"/><path class="cls-2" d="M846.36,314.67v15h-4.31v-15H838V311h12.43v3.64Z"/><path class="cls-2" d="M859.24,311a6.67,6.67,0,0,1,4.76,1.62,5.62,5.62,0,0,1,1.63,4.18,5.11,5.11,0,0,1-1.46,3.8,5.82,5.82,0,0,1-2.6,1.43l5.74,7.65H862l-5-7.37v7.37h-4.31V311ZM857,319.51h1a3.54,3.54,0,0,0,2.58-.81,2.5,2.5,0,0,0,.7-1.82,2.27,2.27,0,0,0-.87-1.9,4.23,4.23,0,0,0-2.38-.59h-1Z"/><path class="cls-2" d="M881,326.18h-7.06l-1.43,3.53H868L875.54,311h3.94l7.37,18.68h-4.48Zm-1.18-3.31-2.29-6.27-2.33,6.27Z"/><path class="cls-2" d="M889,329.71V311h3.75l10.14,12V311h4.31v18.68H903.4l-10.14-12.1v12.1Z"/><path class="cls-2" d="M920.87,315.59a4.55,4.55,0,0,0-3.14-1.34,2.34,2.34,0,0,0-1.82.64,1.67,1.67,0,0,0-.47,1.18,1.33,1.33,0,0,0,.42,1,7.51,7.51,0,0,0,2.35,1.06l1.4.53a7.58,7.58,0,0,1,2.55,1.43,4.67,4.67,0,0,1,1.37,3.47,6.7,6.7,0,0,1-1.65,4.62,7.25,7.25,0,0,1-5.3,1.91,7.86,7.86,0,0,1-3.69-.79,11.77,11.77,0,0,1-2.75-2l2.24-3.08a12.42,12.42,0,0,0,1.74,1.43,4.4,4.4,0,0,0,2.35.67,2.94,2.94,0,0,0,2-.65,1.9,1.9,0,0,0,.67-1.51,1.64,1.64,0,0,0-.64-1.34,9.23,9.23,0,0,0-2.18-1l-1.54-.53a6.36,6.36,0,0,1-2.61-1.48,4.61,4.61,0,0,1-1.12-3.25,5.75,5.75,0,0,1,1.63-4.2,6,6,0,0,1,4.62-1.71,9,9,0,0,1,5.54,1.85Z"/><path class="cls-2" d="M925.77,329.71l3-18.68h3.59L937,322.2,941.64,311h3.59l3,18.68h-4.31l-1.48-11.15-4.68,11.15h-1.51l-4.68-11.15-1.48,11.15Z"/><path class="cls-2" d="M955.84,311v18.68h-4.31V311Z"/><path class="cls-2" d="M966.56,314.67v15h-4.31v-15h-4.06V311h12.43v3.64Z"/><path class="cls-2" d="M980.9,314.67v15h-4.31v-15h-4.06V311H985v3.64Z"/><path class="cls-2" d="M997.78,314.67h-6.24v3.61h5.93v3.64h-5.93v4.15h6.24v3.64H987.23V311h10.55Z"/><path class="cls-2" d="M1007.83,311a6.67,6.67,0,0,1,4.76,1.62,5.62,5.62,0,0,1,1.63,4.18,5.07,5.07,0,0,1-1.46,3.8,5.82,5.82,0,0,1-2.6,1.43l5.74,7.65h-5.27l-5-7.37v7.37h-4.31V311Zm-2.24,8.48h1a3.54,3.54,0,0,0,2.58-.81,2.5,2.5,0,0,0,.7-1.82,2.25,2.25,0,0,0-.87-1.9,4.23,4.23,0,0,0-2.38-.59h-1Z"/><g id="QAM_Mod_white_2" data-name="QAM Mod white 2"><rect class="cls-4" x="594" y="99" width="198" height="144" rx="17.76"/><path class="cls-2" d="M673.5,162.36a12.5,12.5,0,0,1-7.23,2.19,12.42,12.42,0,1,1,12.49-12.41,12.11,12.11,0,0,1-3.38,8.6l3.52,3.63h-3.45Zm0-3.57a9.55,9.55,0,0,0,2.55-6.65,9.74,9.74,0,1,0-4.42,8.31l-5.8-6h3.46Z"/><path class="cls-2" d="M696.9,157.35H686.68l-2.88,6.77h-2.95l11-25.16,10.76,25.16h-2.95Zm-1-2.52-4-9.61-4.1,9.61Z"/><path class="cls-2" d="M705.22,164.12l4-25.34,9.21,20.27,9.4-20.31,3.74,25.38h-2.74l-2.26-16.7-8.17,17.71-8.07-17.71L708,164.12Z"/><path class="cls-2" d="M620.62,204.12l4-25.34,9.21,20.27,9.4-20.31L647,204.12h-2.73L642,187.42l-8.17,17.71-8.07-17.71-2.37,16.7Z"/><path class="cls-2" d="M650.94,196.71a7.92,7.92,0,1,1,7.91,7.84A7.67,7.67,0,0,1,650.94,196.71Zm2.66,0a5.26,5.26,0,1,0,5.25-5.58A5.17,5.17,0,0,0,653.6,196.71Z"/><path class="cls-2" d="M682.18,177.88h2.59v26.24h-2.59V202a6.28,6.28,0,0,1-5.11,2.52c-3.78,0-7.27-2.66-7.27-7.92s3.45-7.81,7.27-7.81a6.17,6.17,0,0,1,5.11,2.49Zm-9.72,18.75c0,3.21,1.8,5.62,4.9,5.62s5-2.63,5-5.58c0-3.85-2.67-5.54-5-5.54C674.8,191.13,672.46,193,672.46,196.63Z"/><path class="cls-2" d="M692.26,197.89a5.1,5.1,0,0,0,.72,3.21,3.58,3.58,0,0,0,5.26,0,5.1,5.1,0,0,0,.72-3.21v-8.71h2.59v9c0,1.84-.18,3.21-1.37,4.5a6.52,6.52,0,0,1-9.14,0c-1.19-1.29-1.37-2.66-1.37-4.5v-9h2.59Z"/><path class="cls-2" d="M709,177.88v26.24h-2.59V177.88Z"/><path class="cls-2" d="M725.38,189.18H728v14.94h-2.59V202a6.28,6.28,0,0,1-5.11,2.52c-3.78,0-7.27-2.66-7.27-7.92s3.45-7.81,7.27-7.81a6.17,6.17,0,0,1,5.11,2.49Zm-9.72,7.45c0,3.21,1.8,5.62,4.9,5.62s5-2.63,5-5.58c0-3.85-2.66-5.54-5-5.54C718,191.13,715.66,193,715.66,196.63Z"/><path class="cls-2" d="M735.53,191.56v12.56h-2.59V191.56h-1.58v-2.38h1.58v-5.4h2.59v5.4h2.59v2.38Z"/><path class="cls-2" d="M739.64,196.71a7.92,7.92,0,1,1,7.92,7.84A7.67,7.67,0,0,1,739.64,196.71Zm2.66,0a5.26,5.26,0,1,0,10.51,0c0-3.67-2.52-5.58-5.25-5.58A5.19,5.19,0,0,0,742.3,196.71Z"/><path class="cls-2" d="M759.44,189.18H762v1.62a4.16,4.16,0,0,1,3.38-2,5.35,5.35,0,0,1,2.3.62l-1.22,2.33a2.68,2.68,0,0,0-1.51-.5,2.51,2.51,0,0,0-2.09.94c-.43.57-.86,1.58-.86,4v7.88h-2.59Z"/></g></g><g id="OFDM"><rect class="cls-5" x="1062" y="621" width="198" height="144" rx="25.59"/><path class="cls-4" d="M1134.89,665a12.08,12.08,0,0,1,0,17.07,12.12,12.12,0,0,1-8.77,3.33,12.49,12.49,0,0,1-8.84-3.33,11.57,11.57,0,0,1-3.54-8.43,12.66,12.66,0,0,1,3.5-8.6,13.42,13.42,0,0,1,17.65,0Zm-13.77,3.47a6.94,6.94,0,0,0-2,5.14,6.77,6.77,0,0,0,2.08,5.1,6.68,6.68,0,0,0,4.86,1.87,6.9,6.9,0,0,0,5-1.94,6.81,6.81,0,0,0,2-5.07,7.16,7.16,0,0,0-2-5.1,7.26,7.26,0,0,0-5-1.94A7,7,0,0,0,1121.12,668.47Z"/><path class="cls-4" d="M1154.91,666.64h-7.34V671h6.8v4.42h-6.8v9.45h-5.24V662.22h12.58Z"/><path class="cls-4" d="M1165.93,662.22c3,0,6.15.44,8.94,3.12a11.86,11.86,0,0,1,.17,16.15,12.24,12.24,0,0,1-8.94,3.4h-7.34V662.22ZM1164,680.47h1.39a8.17,8.17,0,0,0,5.17-1.53,7,7,0,0,0,2.21-5.47,6.71,6.71,0,0,0-1.87-4.9,7.48,7.48,0,0,0-5.51-1.93H1164Z"/><path class="cls-4" d="M1181,684.89l3.64-22.67H1189l5.64,13.56,5.65-13.56h4.35l3.64,22.67H1203l-1.8-13.53-5.68,13.53h-1.83L1188,671.36l-1.8,13.53Z"/><path class="cls-4" d="M1077.18,705.21c2.73,0,5.61.4,8.15,2.85a10.8,10.8,0,0,1,.16,14.73,11.12,11.12,0,0,1-8.16,3.1h-6.69V705.21Zm-1.77,16.65h1.27a7.48,7.48,0,0,0,4.72-1.39,6.49,6.49,0,0,0,2-5,6.14,6.14,0,0,0-1.7-4.46,6.84,6.84,0,0,0-5-1.77h-1.27Z"/><path class="cls-4" d="M1105.51,719.75h-10.32a3.77,3.77,0,0,0,.84,2.36,3,3,0,0,0,2.29.87,3.79,3.79,0,0,0,1.8-.4,2.84,2.84,0,0,0,1-1.15l4.22.43a6.11,6.11,0,0,1-2.67,3.47,8.17,8.17,0,0,1-4.37,1,7.13,7.13,0,0,1-5.52-2,7.43,7.43,0,0,1-2.08-5.33,7.92,7.92,0,0,1,2.11-5.46,8.19,8.19,0,0,1,10.79.1,7.88,7.88,0,0,1,2,5.61Zm-4.12-2.66a3.51,3.51,0,0,0-.9-1.62,3.28,3.28,0,0,0-4.37.13,3.17,3.17,0,0,0-.78,1.49Z"/><path class="cls-4" d="M1108.3,712.06h4.47v1.62a4.35,4.35,0,0,1,3.87-2,5.26,5.26,0,0,1,2.61.62,4.13,4.13,0,0,1,1.67,1.93,5.33,5.33,0,0,1,4.71-2.55,4.81,4.81,0,0,1,5.31,5.43v8.74h-4.47v-7a4.54,4.54,0,0,0-.59-2.69,2,2,0,0,0-1.61-.75,2.16,2.16,0,0,0-1.74.84,4.43,4.43,0,0,0-.68,2.73v6.88h-4.46V718.7a3.7,3.7,0,0,0-.72-2.7,2,2,0,0,0-1.49-.56,2.22,2.22,0,0,0-1.55.56,4.23,4.23,0,0,0-.86,2.82v7.07h-4.47Z"/><path class="cls-4" d="M1147.92,724.12a9.28,9.28,0,0,1-12.09,0,7.4,7.4,0,0,1,0-10.29,9.31,9.31,0,0,1,12.09,0,7.4,7.4,0,0,1,0,10.29Zm-8.56-7.75a3.84,3.84,0,0,0,0,5.21,3.45,3.45,0,0,0,2.55,1,3.4,3.4,0,0,0,2.48-1,3.84,3.84,0,0,0,0-5.21,3.69,3.69,0,0,0-5,0Z"/><path class="cls-4" d="M1167.86,725.89h-4.47v-1.67a4.91,4.91,0,0,1-4.37,2.14,6.22,6.22,0,0,1-4.75-1.89,7.78,7.78,0,0,1-2.17-5.55,7.4,7.4,0,0,1,2.17-5.46,7,7,0,0,1,4.81-1.86,5.16,5.16,0,0,1,4.31,2V703.29h4.47Zm-10.08-9.52a3.57,3.57,0,0,0-1.09,2.64,3.51,3.51,0,0,0,1.09,2.54,3.42,3.42,0,0,0,2.32,1,3.84,3.84,0,0,0,2.55-1,3.39,3.39,0,0,0,1-2.48,3.57,3.57,0,0,0-1-2.54,3.56,3.56,0,0,0-4.9-.1Z"/><path class="cls-4" d="M1175.91,712.06v7.63a2.89,2.89,0,0,0,.78,2.23,2.63,2.63,0,0,0,1.86.66,2.72,2.72,0,0,0,1.89-.66,3,3,0,0,0,.74-2.23v-7.63h4.47v8.06a5.56,5.56,0,0,1-1.55,4.44c-1.58,1.55-3.91,1.8-5.55,1.8s-4-.25-5.58-1.8a5.31,5.31,0,0,1-1.52-4.16v-8.34Z"/><path class="cls-4" d="M1193.71,703.29v22.6h-4.47v-22.6Z"/><path class="cls-4" d="M1207.91,712.06h4.46v13.83h-4.46v-1.67a4.62,4.62,0,0,1-4.1,2.14,6.57,6.57,0,0,1-5.18-2.11,7.35,7.35,0,0,1-2-5.18,7.89,7.89,0,0,1,2.14-5.58,6.65,6.65,0,0,1,4.8-1.89,5.22,5.22,0,0,1,4.35,2Zm-5.68,4.38a3.46,3.46,0,0,0-1,2.51,3.59,3.59,0,0,0,.93,2.48,3.66,3.66,0,0,0,2.63,1.08,3.31,3.31,0,0,0,2.33-1,3.68,3.68,0,0,0,.06-5.15,3.73,3.73,0,0,0-2.48-1A3.53,3.53,0,0,0,1202.23,716.44Z"/><path class="cls-4" d="M1220.43,715.66v10.23H1216V715.66h-1.55v-3.6H1216V707.6h4.47v4.46h2.76v3.6Z"/><path class="cls-4" d="M1238.6,724.12a9.29,9.29,0,0,1-12.1,0,7.43,7.43,0,0,1,0-10.29,9.32,9.32,0,0,1,12.1,0,7.43,7.43,0,0,1,0,10.29Zm-8.56-7.75a3.51,3.51,0,0,0-1,2.61,3.48,3.48,0,0,0,1,2.6,3.65,3.65,0,0,0,5,0,3.84,3.84,0,0,0,0-5.21,3.68,3.68,0,0,0-5,0Z"/><path class="cls-4" d="M1243.46,712.06h4.46v2.17a5.12,5.12,0,0,1,1.74-1.92,4.34,4.34,0,0,1,2.39-.59,4.65,4.65,0,0,1,1.46.22l-.25,4.19a4.22,4.22,0,0,0-2-.5,2.91,2.91,0,0,0-2.23.93,5.26,5.26,0,0,0-1.09,3.72v5.61h-4.46Z"/><rect class="cls-5" x="1062" y="99" width="198" height="144" rx="18.26"/><path class="cls-4" d="M1133.35,142a12.77,12.77,0,0,1,0,18.06,12.83,12.83,0,0,1-9.29,3.53,13.21,13.21,0,0,1-9.36-3.53,12.24,12.24,0,0,1-3.74-8.92,13.4,13.4,0,0,1,3.71-9.11,14.17,14.17,0,0,1,18.68,0Zm-14.58,3.67a7.35,7.35,0,0,0-2.12,5.43,7.18,7.18,0,0,0,2.19,5.4,7.06,7.06,0,0,0,5.15,2,7.09,7.09,0,0,0,7.42-7.41,7.56,7.56,0,0,0-2.09-5.4,7.67,7.67,0,0,0-5.29-2A7.36,7.36,0,0,0,1118.77,145.7Z"/><path class="cls-4" d="M1154.55,143.75h-7.77v4.65h7.2v4.68h-7.2v10h-5.54v-24h13.31Z"/><path class="cls-4" d="M1166.22,139.07c3.17,0,6.51.47,9.47,3.32a12.55,12.55,0,0,1,.18,17.09,13,13,0,0,1-9.47,3.6h-7.78v-24Zm-2,19.33h1.47a8.67,8.67,0,0,0,5.47-1.62,7.48,7.48,0,0,0,2.34-5.79,7.12,7.12,0,0,0-2-5.19,7.92,7.92,0,0,0-5.83-2.05h-1.47Z"/><path class="cls-4" d="M1182.17,163.08l3.85-24h4.61l6,14.37,6-14.37h4.6l3.86,24h-5.55l-1.91-14.32-6,14.32h-1.94l-6-14.32-1.91,14.32Z"/><path class="cls-4" d="M1076.35,204.08l3.85-24h4.61l6,14.37,6-14.37h4.6l3.86,24h-5.55l-1.91-14.32-6,14.32h-1.94l-6-14.32-1.91,14.32Z"/><path class="cls-4" d="M1124.4,202a10.8,10.8,0,0,1-14,0,8.59,8.59,0,0,1,0-11.95,10.8,10.8,0,0,1,14,0,8.59,8.59,0,0,1,0,11.95Zm-9.93-9a4.44,4.44,0,0,0,0,6.05,4.27,4.27,0,0,0,5.83,0,4.44,4.44,0,0,0,0-6.05,4.27,4.27,0,0,0-5.83,0Z"/><path class="cls-4" d="M1147.55,204.08h-5.18v-1.94a5.71,5.71,0,0,1-5.08,2.48,7.19,7.19,0,0,1-5.5-2.19,9,9,0,0,1-2.52-6.45,8.56,8.56,0,0,1,2.52-6.33,8.08,8.08,0,0,1,5.58-2.16,6,6,0,0,1,5,2.34v-12h5.18ZM1135.85,193a4.17,4.17,0,0,0-1.26,3.06,4.08,4.08,0,0,0,1.26,2.95,4,4,0,0,0,2.7,1.12,4.4,4.4,0,0,0,3-1.19,3.87,3.87,0,0,0,1.19-2.88,4.14,4.14,0,0,0-1.15-3,3.83,3.83,0,0,0-2.92-1.19A3.78,3.78,0,0,0,1135.85,193Z"/><path class="cls-4" d="M1156.91,188v8.85a3.43,3.43,0,0,0,.9,2.6,3.08,3.08,0,0,0,2.16.75,3.22,3.22,0,0,0,2.2-.75,3.52,3.52,0,0,0,.86-2.6V188h5.19v9.36a6.43,6.43,0,0,1-1.8,5.14c-1.84,1.8-4.54,2.09-6.45,2.09s-4.64-.29-6.48-2.09a6.15,6.15,0,0,1-1.76-4.82V188Z"/><path class="cls-4" d="M1177.58,177.84v26.24h-5.19V177.84Z"/><path class="cls-4" d="M1194.06,188h5.19v16.05h-5.19v-1.94a5.34,5.34,0,0,1-4.75,2.48,7.59,7.59,0,0,1-6-2.45,8.47,8.47,0,0,1-2.34-6,9.14,9.14,0,0,1,2.49-6.48,7.73,7.73,0,0,1,5.57-2.19,6,6,0,0,1,5,2.34Zm-6.58,5.07a4,4,0,0,0-1.19,2.92,4.12,4.12,0,0,0,1.08,2.88,4.25,4.25,0,0,0,3.06,1.26,3.84,3.84,0,0,0,2.7-1.12,4.25,4.25,0,0,0,.07-6,4.31,4.31,0,0,0-2.88-1.12A4.1,4.1,0,0,0,1187.48,193.1Z"/><path class="cls-4" d="M1208.61,192.2v11.88h-5.18V192.2h-1.8V188h1.8v-5.18h5.18V188h3.2v4.17Z"/><path class="cls-4" d="M1229.7,202a10.8,10.8,0,0,1-14,0,8.59,8.59,0,0,1,0-11.95,10.8,10.8,0,0,1,14,0,8.59,8.59,0,0,1,0,11.95Zm-9.93-9a4.44,4.44,0,0,0,0,6.05,4.27,4.27,0,0,0,5.83,0,4.44,4.44,0,0,0,0-6.05,4.27,4.27,0,0,0-5.83,0Z"/><path class="cls-4" d="M1235.36,188h5.18v2.52a5.74,5.74,0,0,1,2-2.23,5,5,0,0,1,2.77-.69,5.2,5.2,0,0,1,1.69.25l-.29,4.86a4.88,4.88,0,0,0-2.34-.57,3.37,3.37,0,0,0-2.59,1.08,6.1,6.1,0,0,0-1.26,4.32v6.51h-5.18Z"/></g><g id="Equalizer"><rect class="cls-5" x="828" y="621" width="198" height="144" rx="25.59"/><path class="cls-4" d="M866.92,686.79h-8v4.65h7.63v4.67h-7.63v5.33h8v4.68H853.34v-24h13.58Z"/><path class="cls-4" d="M883.12,704.29a6.3,6.3,0,0,1-5.12,2.37,7.05,7.05,0,0,1-5.43-2.16,8.69,8.69,0,0,1-2.56-6.44,9,9,0,0,1,2.41-6.27,7.57,7.57,0,0,1,5.62-2.26,6,6,0,0,1,5.08,2.45v-1.91h5.18v24.29h-5.18Zm-6.56-9.18a4,4,0,0,0-1.22,2.91,4.37,4.37,0,0,0,1.26,3.06,4.13,4.13,0,0,0,2.77,1.12,4.19,4.19,0,0,0,3-1.23,4.13,4.13,0,0,0,1.16-2.84,4.3,4.3,0,0,0-1.23-3,4,4,0,0,0-2.88-1.19A4.09,4.09,0,0,0,876.56,695.11Z"/><path class="cls-4" d="M897.52,690.07v8.85a3.36,3.36,0,0,0,.9,2.59,3,3,0,0,0,2.16.76,3.17,3.17,0,0,0,2.19-.76,3.48,3.48,0,0,0,.87-2.59v-8.85h5.18v9.36a6.43,6.43,0,0,1-1.8,5.14c-1.84,1.8-4.54,2.09-6.44,2.09s-4.65-.29-6.48-2.09a6.14,6.14,0,0,1-1.77-4.82v-9.68Z"/><path class="cls-4" d="M925.16,690.07h5.19v16h-5.19v-1.94a5.34,5.34,0,0,1-4.75,2.48,7.61,7.61,0,0,1-6-2.45,8.49,8.49,0,0,1-2.34-6,9.17,9.17,0,0,1,2.48-6.48,7.77,7.77,0,0,1,5.58-2.19,6,6,0,0,1,5,2.34Zm-6.58,5.07a4,4,0,0,0-1.19,2.92,4.14,4.14,0,0,0,1.08,2.88,4.27,4.27,0,0,0,3.06,1.26,3.84,3.84,0,0,0,2.7-1.12,4.25,4.25,0,0,0,.07-6,4.31,4.31,0,0,0-2.88-1.12A4.08,4.08,0,0,0,918.58,695.14Z"/><path class="cls-4" d="M939.71,679.88v26.24h-5.19V679.88Z"/><path class="cls-4" d="M946.84,680.21a3,3,0,1,1-3,3A3,3,0,0,1,946.84,680.21Zm2.59,9.86v16h-5.19v-16Z"/><path class="cls-4" d="M961,701.8h7.59v4.32H952.24l8.35-11.73H953.5v-4.32h15.83Z"/><path class="cls-4" d="M988.23,699h-12a4.37,4.37,0,0,0,1,2.74,3.49,3.49,0,0,0,2.66,1,4.3,4.3,0,0,0,2.09-.47,3.23,3.23,0,0,0,1.12-1.33l4.89.5a7.16,7.16,0,0,1-3.09,4,9.52,9.52,0,0,1-5.08,1.19,8.33,8.33,0,0,1-6.41-2.3,8.65,8.65,0,0,1-2.41-6.19,9.15,9.15,0,0,1,2.45-6.34,9.51,9.51,0,0,1,12.53.11,9.18,9.18,0,0,1,2.26,6.51Zm-4.78-3.09A4.09,4.09,0,0,0,982.4,694a3.8,3.8,0,0,0-5.07.14,3.54,3.54,0,0,0-.9,1.73Z"/><path class="cls-4" d="M991.48,690.07h5.18v2.52a5.79,5.79,0,0,1,2-2.23,5,5,0,0,1,2.78-.69,5.24,5.24,0,0,1,1.69.25l-.29,4.86a4.88,4.88,0,0,0-2.34-.57,3.36,3.36,0,0,0-2.59,1.08,6.1,6.1,0,0,0-1.26,4.32v6.51h-5.18Z"/></g><g id="flow_lines" data-name="flow lines"><line class="cls-1" x1="459" y1="171" x2="587.14" y2="171"/><polygon class="cls-6" points="575.19 181.17 585.37 171 575.19 160.83 583.83 160.83 594 171 583.83 181.17 575.19 181.17"/><line class="cls-1" x1="1062" y1="693" x2="1032.86" y2="693"/><polygon class="cls-6" points="1044.81 682.83 1034.63 693 1044.81 703.17 1036.17 703.17 1026 693 1036.17 682.83 1044.81 682.83"/><line class="cls-1" x1="828" y1="693" x2="798.86" y2="693"/><polygon class="cls-6" points="810.81 682.83 800.63 693 810.81 703.17 802.17 703.17 792 693 802.17 682.83 810.81 682.83"/><line class="cls-1" x1="792" y1="171" x2="1055.14" y2="171"/><polygon class="cls-6" points="1043.19 181.17 1053.37 171 1043.19 160.83 1051.83 160.83 1062 171 1051.83 181.17 1043.19 181.17"/><line class="cls-1" x1="594" y1="693" x2="465.86" y2="693"/><polygon class="cls-6" points="477.81 682.83 467.63 693 477.81 703.17 469.17 703.17 459 693 469.17 682.83 477.81 682.83"/></g></g><g id="Channel"><g id="Channel_box" data-name="Channel box"><rect class="cls-7" x="1350" y="306" width="252" height="252" rx="53.71" transform="translate(1044 1908) rotate(-90)"/><path class="cls-2" d="M1207.42,441.62a8.66,8.66,0,0,1-4.11,1,10,10,0,0,1-7.34-2.72,10,10,0,0,1,0-14.11,9.89,9.89,0,0,1,7-2.69,11,11,0,0,1,4.48,1v5a5.9,5.9,0,0,0-4.36-2,5.25,5.25,0,0,0-3.81,1.46,6,6,0,0,0-1.77,4.31,5.46,5.46,0,0,0,5.66,5.68,5.85,5.85,0,0,0,4.28-1.93Z"/><path class="cls-2" d="M1215.18,430.64h7.45v-7.11h4.31v18.68h-4.31v-7.93h-7.45v7.93h-4.31V423.53h4.31Z"/><path class="cls-2" d="M1242,438.68h-7l-1.43,3.53H1229l7.53-18.68h4l7.36,18.68h-4.48Zm-1.17-3.31-2.3-6.27-2.32,6.27Z"/><path class="cls-2" d="M1250,442.21V423.53h3.76l10.13,12v-12h4.31v18.68h-3.75l-10.13-12.1v12.1Z"/><path class="cls-2" d="M1272.27,442.21V423.53H1276l10.14,12v-12h4.31v18.68h-3.75l-10.14-12.1v12.1Z"/><path class="cls-2" d="M1305.12,427.17h-6.25v3.61h5.94v3.64h-5.94v4.15h6.25v3.64h-10.56V423.53h10.56Z"/><path class="cls-2" d="M1312.93,423.53v15h5.79v3.64h-10.1V423.53Z"/></g><g id="_2_blocks" data-name="2 blocks"><g id="AWGN_white_2" data-name="AWGN white 2"><rect class="cls-4" x="1386" y="450" width="180" height="63" rx="12"/><path class="cls-2" d="M1439.55,487.5h-9.65l-2.72,6.39h-2.79l10.44-23.76L1445,493.89h-2.79Zm-1-2.38-3.8-9.08-3.88,9.08Z"/><path class="cls-2" d="M1446.56,471.22l6,17,7.1-18.15,6.74,18.15,6.62-17h2.79l-9.52,23.86-6.66-18.15-7.14,18.15-8.7-23.86Z"/><path class="cls-2" d="M1490.69,482.5h9.45v.55a12.49,12.49,0,0,1-2.18,7.17,10.17,10.17,0,0,1-8.43,4.08,11.73,11.73,0,1,1,.07-23.46,11.29,11.29,0,0,1,6.93,2.25,14,14,0,0,1,2.62,2.68l-1.87,1.7a11.58,11.58,0,0,0-2.14-2.34,8.3,8.3,0,0,0-5.51-1.91,9.35,9.35,0,0,0-.07,18.7,7.89,7.89,0,0,0,6.94-3.81,7.15,7.15,0,0,0,.92-3.23h-6.73Z"/><path class="cls-2" d="M1504.76,493.89V470.26l17.68,18.53V471.22H1525v23.69l-17.68-18.53v17.51Z"/></g><g id="Multipath_white" data-name="Multipath white"><rect class="cls-4" x="1386" y="351" width="180" height="63" rx="12"/><path class="cls-2" d="M1411.76,395.62l4-25.34,9.21,20.27,9.4-20.31,3.74,25.38h-2.74l-2.26-16.7-8.18,17.71-8.06-17.71-2.37,16.7Z"/><path class="cls-2" d="M1445.6,389.39a5.1,5.1,0,0,0,.72,3.21,3.57,3.57,0,0,0,5.25,0,5.1,5.1,0,0,0,.72-3.21v-8.71h2.6v9c0,1.84-.18,3.21-1.37,4.5a6.52,6.52,0,0,1-9.14,0c-1.19-1.29-1.37-2.66-1.37-4.5v-9h2.59Z"/><path class="cls-2" d="M1462.37,369.38v26.24h-2.59V369.38Z"/><path class="cls-2" d="M1469.93,383.06v12.56h-2.59V383.06h-1.58v-2.38h1.58v-5.4h2.59v5.4h2.6v2.38Z"/><path class="cls-2" d="M1476.27,373.2a1.84,1.84,0,1,1-1.84,1.83A1.83,1.83,0,0,1,1476.27,373.2Zm1.29,7.48v14.94H1475V380.68Z"/><path class="cls-2" d="M1485.05,403.9h-2.59V380.68h2.59v2.09a6.45,6.45,0,0,1,5.11-2.45c4.68,0,7.27,3.89,7.27,7.92s-2.62,7.81-7.16,7.81a6.35,6.35,0,0,1-5.22-2.52Zm9.72-15.66c0-3.67-2.48-5.61-4.89-5.61s-5,2-5,5.58c0,3.06,1.94,5.54,5,5.54S1494.77,391.23,1494.77,388.24Z"/><path class="cls-2" d="M1512.84,380.68h2.59v14.94h-2.59v-2.09a6.28,6.28,0,0,1-5.11,2.52c-3.78,0-7.27-2.66-7.27-7.92s3.46-7.81,7.27-7.81a6.17,6.17,0,0,1,5.11,2.49Zm-9.72,7.45c0,3.21,1.8,5.62,4.9,5.62s5-2.63,5-5.58c0-3.85-2.67-5.54-5-5.54C1505.46,382.63,1503.12,384.5,1503.12,388.13Z"/><path class="cls-2" d="M1523,383.06v12.56h-2.6V383.06h-1.58v-2.38h1.58v-5.4h2.6v5.4h2.59v2.38Z"/><path class="cls-2" d="M1528,369.38h2.59v13a5.26,5.26,0,0,1,4.28-2.09,5.05,5.05,0,0,1,4.28,2.06,6.62,6.62,0,0,1,.87,4v9.25h-2.59v-9.18a4.39,4.39,0,0,0-.69-2.73,2.91,2.91,0,0,0-2.45-1.08,3.24,3.24,0,0,0-2.62,1.15,6.28,6.28,0,0,0-1.08,4v7.81H1528Z"/></g><g id="flow_txrx_3" data-name="flow txrx 3"><path class="cls-1" d="M1476,513V668.45s0,24.55-27,24.55H1266.86"/><polygon class="cls-6" points="1278.81 682.83 1268.63 693 1278.81 703.17 1270.17 703.17 1260 693 1270.17 682.83 1278.81 682.83"/><path class="cls-1" d="M1260,171h189c27,0,27,24.55,27,26.27l0,146.87"/><polygon class="cls-6" points="1465.78 332.19 1475.95 342.37 1486.13 332.19 1486.13 340.83 1475.95 351 1465.78 340.82 1465.78 332.19"/></g><line class="cls-1" x1="1476" y1="414" x2="1476" y2="443.14"/><polygon class="cls-6" points="1465.83 431.19 1476 441.37 1486.17 431.19 1486.17 439.83 1476 450 1465.83 439.83 1465.83 431.19"/></g></g></svg>